<svg width="638" height="374" viewBox="0 0 638 374" fill="none" xmlns="http://www.w3.org/2000/svg">
<path d="M4.60956 8.69485H11.3053V11.1983H4.60956V8.69485ZM4.84798 14.4171H12.418V17H1.64911V3.09186H12.1597V5.6748H4.84798V14.4171ZM16.7567 12.6487V10.1651H22.3795V12.6487H16.7567ZM34.5327 17.2384C33.4598 17.2384 32.4597 17.0662 31.5325 16.7218C30.6186 16.3642 29.8238 15.8609 29.1483 15.2118C28.4727 14.5628 27.9429 13.8011 27.5588 12.9269C27.1879 12.0527 27.0024 11.0923 27.0024 10.0459C27.0024 8.99951 27.1879 8.03918 27.5588 7.16496C27.9429 6.29073 28.4727 5.52909 29.1483 4.88005C29.8371 4.231 30.6384 3.73428 31.5524 3.38989C32.4664 3.03225 33.4664 2.85343 34.5526 2.85343C35.758 2.85343 36.8441 3.06536 37.8111 3.48923C38.7912 3.89985 39.6125 4.50916 40.2748 5.31716L38.2084 7.22456C37.7316 6.68148 37.2017 6.27748 36.6189 6.01257C36.0361 5.7344 35.4003 5.59532 34.7115 5.59532C34.0625 5.59532 33.4664 5.70129 32.9233 5.91322C32.3803 6.12516 31.91 6.42981 31.5127 6.82719C31.1153 7.22456 30.804 7.69479 30.5788 8.23787C30.3669 8.78095 30.2609 9.38364 30.2609 10.0459C30.2609 10.7082 30.3669 11.3109 30.5788 11.854C30.804 12.3971 31.1153 12.8673 31.5127 13.2647C31.91 13.662 32.3803 13.9667 32.9233 14.1786C33.4664 14.3906 34.0625 14.4965 34.7115 14.4965C35.4003 14.4965 36.0361 14.3641 36.6189 14.0992C37.2017 13.821 37.7316 13.4038 38.2084 12.8474L40.2748 14.7548C39.6125 15.5628 38.7912 16.1788 37.8111 16.6026C36.8441 17.0265 35.7513 17.2384 34.5327 17.2384ZM51.6944 17.2384C50.595 17.2384 49.575 17.0596 48.6346 16.702C47.7074 16.3443 46.8994 15.841 46.2106 15.1919C45.535 14.5429 45.0052 13.7813 44.6211 12.907C44.2502 12.0328 44.0648 11.0791 44.0648 10.0459C44.0648 9.01275 44.2502 8.05905 44.6211 7.18482C45.0052 6.3106 45.5417 5.54896 46.2305 4.89991C46.9192 4.25087 47.7272 3.74753 48.6544 3.38989C49.5817 3.03225 50.5883 2.85343 51.6745 2.85343C52.7739 2.85343 53.7806 3.03225 54.6945 3.38989C55.6218 3.74753 56.4231 4.25087 57.0987 4.89991C57.7875 5.54896 58.3239 6.3106 58.708 7.18482C59.0922 8.0458 59.2842 8.99951 59.2842 10.0459C59.2842 11.0791 59.0922 12.0394 58.708 12.9269C58.3239 13.8011 57.7875 14.5628 57.0987 15.2118C56.4231 15.8476 55.6218 16.3443 54.6945 16.702C53.7806 17.0596 52.7805 17.2384 51.6944 17.2384ZM51.6745 14.4965C52.2971 14.4965 52.8666 14.3906 53.3832 14.1786C53.913 13.9667 54.3766 13.662 54.774 13.2647C55.1714 12.8673 55.4761 12.3971 55.688 11.854C55.9132 11.3109 56.0258 10.7082 56.0258 10.0459C56.0258 9.38364 55.9132 8.78095 55.688 8.23787C55.4761 7.69479 55.1714 7.22456 54.774 6.82719C54.3899 6.42981 53.9329 6.12516 53.4031 5.91322C52.8732 5.70129 52.2971 5.59532 51.6745 5.59532C51.0519 5.59532 50.4757 5.70129 49.9459 5.91322C49.4293 6.12516 48.9723 6.42981 48.575 6.82719C48.1776 7.22456 47.8663 7.69479 47.6411 8.23787C47.4292 8.78095 47.3232 9.38364 47.3232 10.0459C47.3232 10.695 47.4292 11.2977 47.6411 11.854C47.8663 12.3971 48.171 12.8673 48.5551 13.2647C48.9525 13.662 49.4161 13.9667 49.9459 14.1786C50.4757 14.3906 51.0519 14.4965 51.6745 14.4965ZM70.6641 17.2384C68.6904 17.2384 67.1473 16.6887 66.0347 15.5893C64.922 14.4899 64.3657 12.9203 64.3657 10.8804V3.09186H67.5844V10.7612C67.5844 12.0858 67.856 13.0395 68.399 13.6223C68.9421 14.2051 69.7038 14.4965 70.6839 14.4965C71.6641 14.4965 72.4258 14.2051 72.9689 13.6223C73.5119 13.0395 73.7835 12.0858 73.7835 10.7612V3.09186H76.9625V10.8804C76.9625 12.9203 76.4062 14.4899 75.2935 15.5893C74.1809 16.6887 72.6377 17.2384 70.6641 17.2384ZM82.9248 17V3.09186H88.9451C90.1902 3.09186 91.2631 3.29717 92.1638 3.70779C93.0645 4.10516 93.7599 4.68136 94.25 5.43637C94.7401 6.19139 94.9852 7.0921 94.9852 8.13853C94.9852 9.1717 94.7401 10.0658 94.25 10.8208C93.7599 11.5626 93.0645 12.1321 92.1638 12.5295C91.2631 12.9269 90.1902 13.1256 88.9451 13.1256H84.713L86.1436 11.7149V17H82.9248ZM91.7664 17L88.2894 11.9533H91.7267L95.2435 17H91.7664ZM86.1436 12.0725L84.713 10.5625H88.7662C89.7597 10.5625 90.5014 10.3506 90.9915 9.92672C91.4816 9.4896 91.7267 8.89354 91.7267 8.13853C91.7267 7.37027 91.4816 6.7742 90.9915 6.35034C90.5014 5.92647 89.7597 5.71453 88.7662 5.71453H84.713L86.1436 4.18464V12.0725ZM104.887 17.2384C103.774 17.2384 102.708 17.0927 101.688 16.8013C100.668 16.4967 99.8468 16.1059 99.2242 15.6291L100.317 13.2051C100.913 13.6289 101.615 13.9799 102.423 14.2581C103.244 14.523 104.072 14.6555 104.907 14.6555C105.542 14.6555 106.052 14.5959 106.437 14.4767C106.834 14.3442 107.125 14.1654 107.311 13.9402C107.496 13.715 107.589 13.4567 107.589 13.1653C107.589 12.7944 107.443 12.503 107.152 12.2911C106.86 12.0659 106.476 11.8871 105.999 11.7546C105.523 11.6089 104.993 11.4765 104.41 11.3573C103.84 11.2248 103.264 11.0659 102.681 10.8804C102.112 10.695 101.589 10.4565 101.112 10.1651C100.635 9.87373 100.244 9.4896 99.9395 9.01275C99.6481 8.5359 99.5024 7.92659 99.5024 7.18482C99.5024 6.39007 99.7143 5.66817 100.138 5.01913C100.575 4.35683 101.224 3.83362 102.085 3.44949C102.96 3.05212 104.052 2.85343 105.364 2.85343C106.238 2.85343 107.099 2.9594 107.947 3.17133C108.794 3.37002 109.543 3.67467 110.192 4.08529L109.198 6.52915C108.549 6.15827 107.9 5.88673 107.251 5.71453C106.602 5.52909 105.966 5.43637 105.344 5.43637C104.721 5.43637 104.211 5.50922 103.814 5.65493C103.417 5.80063 103.132 5.9927 102.96 6.23112C102.787 6.4563 102.701 6.72122 102.701 7.02587C102.701 7.38351 102.847 7.67492 103.138 7.9001C103.43 8.11203 103.814 8.28423 104.291 8.41669C104.768 8.54915 105.291 8.68161 105.86 8.81406C106.443 8.94652 107.019 9.09885 107.589 9.27105C108.172 9.44324 108.702 9.67504 109.178 9.96645C109.655 10.2579 110.039 10.642 110.331 11.1188C110.636 11.5957 110.788 12.1984 110.788 12.9269C110.788 13.7084 110.569 14.4237 110.132 15.0727C109.695 15.7218 109.039 16.245 108.165 16.6424C107.304 17.0397 106.211 17.2384 104.887 17.2384ZM118.729 8.69485H125.425V11.1983H118.729V8.69485ZM118.968 14.4171H126.538V17H115.769V3.09186H126.279V5.6748H118.968V14.4171ZM140.289 17V3.09186H146.309C147.554 3.09186 148.627 3.29717 149.528 3.70779C150.429 4.10516 151.124 4.68136 151.614 5.43637C152.104 6.19139 152.349 7.0921 152.349 8.13853C152.349 9.1717 152.104 10.0658 151.614 10.8208C151.124 11.5758 150.429 12.1586 149.528 12.5693C148.627 12.9666 147.554 13.1653 146.309 13.1653H142.077L143.508 11.7149V17H140.289ZM143.508 12.0725L142.077 10.5426H146.13C147.124 10.5426 147.866 10.3307 148.356 9.90685C148.846 9.48298 149.091 8.89354 149.091 8.13853C149.091 7.37027 148.846 6.7742 148.356 6.35034C147.866 5.92647 147.124 5.71453 146.13 5.71453H142.077L143.508 4.18464V12.0725ZM157.429 17V3.09186H160.648V14.3773H167.622V17H157.429ZM170.451 17L176.65 3.09186H179.829L186.048 17H182.671L177.584 4.7211H178.856L173.749 17H170.451ZM173.551 14.0197L174.405 11.5758H181.558L182.432 14.0197H173.551ZM192.455 17V5.71453H188.005V3.09186H200.125V5.71453H195.674V17H192.455ZM207.618 9.35052H214.294V11.9335H207.618V9.35052ZM207.857 17H204.638V3.09186H215.149V5.6748H207.857V17ZM226.729 17.2384C225.63 17.2384 224.61 17.0596 223.669 16.702C222.742 16.3443 221.934 15.841 221.245 15.1919C220.57 14.5429 220.04 13.7813 219.656 12.907C219.285 12.0328 219.099 11.0791 219.099 10.0459C219.099 9.01275 219.285 8.05905 219.656 7.18482C220.04 6.3106 220.576 5.54896 221.265 4.89991C221.954 4.25087 222.762 3.74753 223.689 3.38989C224.616 3.03225 225.623 2.85343 226.709 2.85343C227.809 2.85343 228.815 3.03225 229.729 3.38989C230.656 3.74753 231.458 4.25087 232.133 4.89991C232.822 5.54896 233.359 6.3106 233.743 7.18482C234.127 8.0458 234.319 8.99951 234.319 10.0459C234.319 11.0791 234.127 12.0394 233.743 12.9269C233.359 13.8011 232.822 14.5628 232.133 15.2118C231.458 15.8476 230.656 16.3443 229.729 16.702C228.815 17.0596 227.815 17.2384 226.729 17.2384ZM226.709 14.4965C227.332 14.4965 227.901 14.3906 228.418 14.1786C228.948 13.9667 229.411 13.662 229.809 13.2647C230.206 12.8673 230.511 12.3971 230.723 11.854C230.948 11.3109 231.06 10.7082 231.06 10.0459C231.06 9.38364 230.948 8.78095 230.723 8.23787C230.511 7.69479 230.206 7.22456 229.809 6.82719C229.425 6.42981 228.968 6.12516 228.438 5.91322C227.908 5.70129 227.332 5.59532 226.709 5.59532C226.087 5.59532 225.51 5.70129 224.981 5.91322C224.464 6.12516 224.007 6.42981 223.61 6.82719C223.212 7.22456 222.901 7.69479 222.676 8.23787C222.464 8.78095 222.358 9.38364 222.358 10.0459C222.358 10.695 222.464 11.2977 222.676 11.854C222.901 12.3971 223.206 12.8673 223.59 13.2647C223.987 13.662 224.451 13.9667 224.981 14.1786C225.51 14.3906 226.087 14.4965 226.709 14.4965ZM239.52 17V3.09186H245.54C246.785 3.09186 247.858 3.29717 248.758 3.70779C249.659 4.10516 250.355 4.68136 250.845 5.43637C251.335 6.19139 251.58 7.0921 251.58 8.13853C251.58 9.1717 251.335 10.0658 250.845 10.8208C250.355 11.5626 249.659 12.1321 248.758 12.5295C247.858 12.9269 246.785 13.1256 245.54 13.1256H241.308L242.738 11.7149V17H239.52ZM248.361 17L244.884 11.9533H248.321L251.838 17H248.361ZM242.738 12.0725L241.308 10.5625H245.361C246.354 10.5625 247.096 10.3506 247.586 9.92672C248.076 9.4896 248.321 8.89354 248.321 8.13853C248.321 7.37027 248.076 6.7742 247.586 6.35034C247.096 5.92647 246.354 5.71453 245.361 5.71453H241.308L242.738 4.18464V12.0725ZM256.912 17V3.09186H259.574L265.495 12.907H264.084L269.906 3.09186H272.548L272.588 17H269.568L269.548 7.72128H270.105L265.455 15.5297H264.005L259.256 7.72128H259.932V17H256.912Z" fill="#2B788B"/>
<path d="M20.8005 101.589C34.9604 101.492 46.679 101.247 55.9562 100.857C55.3214 103.347 54.9308 105.74 54.7843 108.034C54.6378 110.329 54.5646 113.113 54.5646 116.384H2.92964C3.32026 106.911 3.51557 98.0493 3.51557 89.7975C3.51557 81.5456 3.32026 72.6835 2.92964 63.211H20.8005V101.589ZM96.1787 98.0737H72.3021C72.6927 100.222 73.6448 101.98 75.1585 103.347C76.7209 104.665 78.9182 105.325 81.7502 105.325C83.8009 105.325 85.7296 104.934 87.5362 104.153C89.3428 103.323 90.7832 102.175 91.8574 100.71C95.1289 102.322 99.4745 104.055 104.894 105.911C103.381 109.328 100.622 112.063 96.6181 114.113C92.6631 116.115 87.4874 117.116 81.091 117.116C72.7903 117.116 66.6381 115.212 62.6343 111.404C58.6792 107.546 56.7017 102.493 56.7017 96.2427C56.7017 90.1393 58.6792 85.1833 62.6343 81.3748C66.5893 77.5662 72.7415 75.6619 81.091 75.6619C86.0714 75.6619 90.3926 76.492 94.0547 78.1521C97.7167 79.8123 100.524 82.1316 102.477 85.11C104.43 88.0397 105.407 91.4088 105.407 95.2173C105.407 96.4868 105.358 97.439 105.261 98.0737H96.1787ZM82.1164 86.7213C79.675 86.7213 77.6731 87.1852 76.1106 88.1129C74.5481 89.0406 73.4495 90.3102 72.8148 91.9215H90.0996C89.5137 90.359 88.5616 89.1139 87.2432 88.1862C85.9249 87.2096 84.2159 86.7213 82.1164 86.7213ZM154.523 104.226C154.523 105.886 154.718 107.058 155.109 107.742C155.5 108.425 156.281 108.913 157.453 109.206L157.16 116.091C155.597 116.335 154.23 116.506 153.058 116.604C151.935 116.701 150.422 116.75 148.517 116.75C144.318 116.75 141.535 115.822 140.168 113.967C138.801 112.063 138.117 109.646 138.117 106.716V104.885C136.701 108.889 134.626 111.867 131.892 113.821C129.206 115.774 125.764 116.75 121.565 116.75C116.682 116.75 112.995 115.774 110.505 113.821C108.064 111.867 106.843 108.962 106.843 105.105C106.843 101.931 107.893 99.4409 109.993 97.6343C112.092 95.8277 115.339 94.5826 119.734 93.899C116.023 91.2623 112.312 88.9674 108.601 87.0143C111.531 83.3034 114.875 80.4959 118.635 78.5916C122.395 76.6385 126.96 75.6619 132.331 75.6619C139.851 75.6619 145.417 77.2977 149.03 80.5691C152.692 83.7917 154.523 88.7721 154.523 95.5103V104.226ZM133.869 88.5524C131.379 88.5524 129.182 88.9674 127.277 89.7975C125.373 90.6275 123.664 91.8726 122.151 93.5328C125.08 93.191 128.742 93.0201 133.137 93.0201C134.943 93.0201 136.213 92.8004 136.945 92.3609C137.678 91.9215 138.044 91.3599 138.044 90.6764C138.044 90.0904 137.678 89.6022 136.945 89.2115C136.213 88.7721 135.188 88.5524 133.869 88.5524ZM126.179 104.812C128.913 104.812 131.379 104.299 133.576 103.274C135.773 102.2 137.287 100.808 138.117 99.0991V97.1948C136.945 97.7807 135.651 98.2446 134.235 98.5864C132.819 98.8794 131.11 99.1723 129.109 99.4653L126.472 99.9047C123.738 100.442 122.37 101.37 122.37 102.688C122.37 104.104 123.64 104.812 126.179 104.812ZM175.925 87.234C177.976 79.8611 183.078 76.1746 191.232 76.1746C192.648 76.1746 194.016 76.2723 195.334 76.4676L192.99 92.8736C189.475 91.5553 186.594 90.8961 184.348 90.8961C181.565 90.8961 179.514 91.7262 178.195 93.3863C176.877 95.0464 176.218 97.2681 176.218 100.051V99.978L176.145 104.812C176.145 108.279 176.242 112.136 176.438 116.384H158.933C159.324 109.353 159.519 102.712 159.519 96.4624C159.519 90.2125 159.324 83.5232 158.933 76.3944C162.156 76.5408 164.621 76.6141 166.33 76.6141C168.137 76.6141 170.603 76.5408 173.728 76.3944L175.925 87.234ZM226.838 116.384C227.131 109.206 227.278 102.59 227.278 96.5356C227.278 94.3872 226.741 92.6783 225.667 91.4088C224.641 90.1393 223.323 89.5045 221.712 89.5045C220.1 89.5045 218.733 90.2369 217.61 91.7017C216.487 93.1177 215.828 95.0708 215.633 97.561C215.535 101.272 215.486 103.909 215.486 105.471C215.486 108.791 215.584 112.429 215.779 116.384H198.274C198.665 109.353 198.86 102.712 198.86 96.4624C198.86 90.2125 198.665 83.5232 198.274 76.3944C201.497 76.5408 203.963 76.6141 205.672 76.6141C207.478 76.6141 209.944 76.5408 213.069 76.3944L215.193 87.1608C216.316 83.2546 218.074 80.3738 220.466 78.5184C222.859 76.6141 225.642 75.6619 228.816 75.6619C231.746 75.6619 234.285 76.3211 236.433 77.6395C238.581 78.909 240.193 80.6423 241.267 82.8396C242.39 85.0368 242.951 87.5026 242.951 90.2369V100.784C242.951 107.278 243.073 112.478 243.318 116.384H226.838ZM256.084 72.0731C253.008 72.0731 250.713 71.3163 249.2 69.8027C247.735 68.289 247.003 66.3115 247.003 63.8701C247.003 61.4776 247.735 59.5001 249.2 57.9376C250.713 56.3751 253.008 55.5939 256.084 55.5939C259.014 55.5939 261.26 56.3996 262.823 58.0109C264.385 59.5733 265.166 61.5264 265.166 63.8701C265.166 66.3115 264.41 68.289 262.896 69.8027C261.382 71.3163 259.112 72.0731 256.084 72.0731ZM247.588 116.384C247.93 108.523 248.101 102.029 248.101 96.9019C248.101 90.7984 247.906 83.9626 247.515 76.3944H265.093C264.702 83.6696 264.507 90.5055 264.507 96.9019C264.507 102.273 264.678 108.767 265.02 116.384H247.588ZM297.367 116.384C297.66 109.206 297.807 102.59 297.807 96.5356C297.807 94.3872 297.27 92.6783 296.195 91.4088C295.17 90.1393 293.852 89.5045 292.24 89.5045C290.629 89.5045 289.262 90.2369 288.139 91.7017C287.016 93.1177 286.357 95.0708 286.161 97.561C286.064 101.272 286.015 103.909 286.015 105.471C286.015 108.791 286.113 112.429 286.308 116.384H268.803C269.194 109.353 269.389 102.712 269.389 96.4624C269.389 90.2125 269.194 83.5232 268.803 76.3944C272.026 76.5408 274.492 76.6141 276.201 76.6141C278.007 76.6141 280.473 76.5408 283.598 76.3944L285.722 87.1608C286.845 83.2546 288.603 80.3738 290.995 78.5184C293.388 76.6141 296.171 75.6619 299.345 75.6619C302.274 75.6619 304.813 76.3211 306.962 77.6395C309.11 78.909 310.721 80.6423 311.796 82.8396C312.919 85.0368 313.48 87.5026 313.48 90.2369V100.784C313.48 107.278 313.602 112.478 313.846 116.384H297.367ZM351.369 76.3944H365.431C365.187 84.402 365.065 95.7788 365.065 110.525C365.065 116.335 363.893 121.096 361.549 124.807C359.254 128.518 356.203 131.203 352.394 132.863C348.586 134.572 344.338 135.427 339.65 135.427C335.012 135.427 330.861 134.743 327.199 133.376C323.537 132.058 320.754 130.275 318.85 128.029L322.146 116.823C324.782 118.337 327.272 119.411 329.616 120.046C331.96 120.73 334.401 121.071 336.94 121.071C345.241 121.071 349.391 117.556 349.391 110.525C349.391 109.499 349.416 108.767 349.465 108.327C349.465 108.034 349.465 107.644 349.465 107.156C349.513 106.667 349.513 106.033 349.465 105.251C346.974 112.185 341.701 115.652 333.644 115.652C330.373 115.652 327.443 114.773 324.856 113.015C322.316 111.257 320.339 108.889 318.923 105.911C317.507 102.883 316.799 99.5629 316.799 95.9497C316.799 92.2388 317.507 88.8453 318.923 85.7692C320.339 82.6443 322.316 80.1785 324.856 78.3719C327.395 76.5653 330.251 75.6619 333.425 75.6619C341.677 75.6619 347.048 78.5672 349.538 84.3776L351.369 76.3944ZM341.262 103.933C342.385 103.933 343.556 103.689 344.777 103.201C345.998 102.663 347.048 101.833 347.926 100.71C348.805 99.5385 349.245 98.0981 349.245 96.3892C349.245 93.3619 348.561 91.2135 347.194 89.944C345.827 88.6256 343.801 87.9664 341.115 87.9664C338.771 87.9664 336.916 88.7477 335.549 90.3102C334.182 91.8726 333.498 93.899 333.498 96.3892C333.498 98.6352 334.23 100.466 335.695 101.882C337.209 103.249 339.064 103.933 341.262 103.933ZM427.051 104.226C427.051 105.886 427.247 107.058 427.637 107.742C428.028 108.425 428.809 108.913 429.981 109.206L429.688 116.091C428.126 116.335 426.758 116.506 425.587 116.604C424.463 116.701 422.95 116.75 421.046 116.75C416.846 116.75 414.063 115.822 412.696 113.967C411.329 112.063 410.645 109.646 410.645 106.716V104.885C409.229 108.889 407.154 111.867 404.42 113.821C401.734 115.774 398.292 116.75 394.093 116.75C389.21 116.75 385.524 115.774 383.033 113.821C380.592 111.867 379.371 108.962 379.371 105.105C379.371 101.931 380.421 99.4409 382.521 97.6343C384.62 95.8277 387.867 94.5826 392.262 93.899C388.551 91.2623 384.84 88.9674 381.129 87.0143C384.059 83.3034 387.404 80.4959 391.163 78.5916C394.923 76.6385 399.488 75.6619 404.859 75.6619C412.379 75.6619 417.945 77.2977 421.558 80.5691C425.22 83.7917 427.051 88.7721 427.051 95.5103V104.226ZM406.397 88.5524C403.907 88.5524 401.71 88.9674 399.806 89.7975C397.901 90.6275 396.192 91.8726 394.679 93.5328C397.608 93.191 401.27 93.0201 405.665 93.0201C407.472 93.0201 408.741 92.8004 409.473 92.3609C410.206 91.9215 410.572 91.3599 410.572 90.6764C410.572 90.0904 410.206 89.6022 409.473 89.2115C408.741 88.7721 407.716 88.5524 406.397 88.5524ZM398.707 104.812C401.441 104.812 403.907 104.299 406.104 103.274C408.302 102.2 409.815 100.808 410.645 99.0991V97.1948C409.473 97.7807 408.18 98.2446 406.764 98.5864C405.348 98.8794 403.639 99.1723 401.637 99.4653L399 99.9047C396.266 100.442 394.899 101.37 394.899 102.688C394.899 104.104 396.168 104.812 398.707 104.812ZM460.025 116.384C460.318 109.206 460.465 102.59 460.465 96.5356C460.465 94.3872 459.928 92.6783 458.853 91.4088C457.828 90.1393 456.51 89.5045 454.898 89.5045C453.287 89.5045 451.92 90.2369 450.797 91.7017C449.674 93.1177 449.015 95.0708 448.819 97.561C448.722 101.272 448.673 103.909 448.673 105.471C448.673 108.791 448.771 112.429 448.966 116.384H431.461C431.852 109.353 432.047 102.712 432.047 96.4624C432.047 90.2125 431.852 83.5232 431.461 76.3944C434.684 76.5408 437.15 76.6141 438.859 76.6141C440.665 76.6141 443.131 76.5408 446.256 76.3944L448.38 87.1608C449.503 83.2546 451.261 80.3738 453.653 78.5184C456.046 76.6141 458.829 75.6619 462.003 75.6619C464.932 75.6619 467.471 76.3211 469.62 77.6395C471.768 78.909 473.38 80.6423 474.454 82.8396C475.577 85.0368 476.138 87.5026 476.138 90.2369V100.784C476.138 107.278 476.26 112.478 476.505 116.384H460.025ZM527.357 59.4024C527.064 68.4843 526.917 77.9813 526.917 87.8932C526.917 97.7075 527.064 107.204 527.357 116.384H510.804L511.024 107.595C509.608 110.866 507.557 113.283 504.872 114.846C502.186 116.36 499.012 117.116 495.35 117.116C492.177 117.116 489.32 116.213 486.781 114.406C484.242 112.6 482.265 110.158 480.849 107.082C479.433 103.957 478.725 100.539 478.725 96.8286C478.725 93.1666 479.433 89.7242 480.849 86.5016C482.265 83.2302 484.242 80.6179 486.781 78.6648C489.369 76.6629 492.299 75.6619 495.57 75.6619C499.379 75.6619 502.626 76.4676 505.311 78.0789C508.045 79.6414 510.072 82.0827 511.39 85.403C511.39 82.6199 511.292 78.1521 511.097 71.9999C510.902 66.043 510.804 61.8438 510.804 59.4024H527.357ZM503.041 104.812C505.433 104.812 507.386 104.153 508.9 102.834C510.414 101.467 511.17 99.3188 511.17 96.3892C511.17 93.8013 510.414 91.897 508.9 90.6764C507.386 89.4557 505.482 88.8453 503.187 88.8453C500.99 88.8453 499.134 89.5533 497.621 90.9693C496.156 92.3365 495.424 94.1431 495.424 96.3892C495.424 98.8794 496.107 100.906 497.474 102.468C498.842 104.031 500.697 104.812 503.041 104.812ZM36.1078 162.505C31.6157 162.212 27.5142 161.992 23.8033 161.845L23.7301 169.609C23.7301 172.246 24.2916 174.321 25.4146 175.834C26.5865 177.299 28.6372 178.032 31.5669 178.032C32.6899 178.032 33.7641 177.934 34.7895 177.739C34.5942 179.545 34.4965 181.376 34.4965 183.232C34.4965 184.111 34.5454 186.113 34.643 189.237C32.4946 189.628 30.688 189.872 29.2232 189.97C27.7584 190.068 25.8541 190.116 23.5104 190.116C17.7976 190.116 13.7449 188.749 11.3524 186.015C9.00865 183.232 7.83679 179.374 7.83679 174.443L7.91003 162.065C5.61515 162.163 3.22261 162.309 0.73241 162.505V149.541C3.27143 149.541 5.41984 148.735 7.17762 147.124C8.93541 145.513 9.9852 143.584 10.327 141.338H30.2486C27.7584 144.756 24.9996 147.49 21.9723 149.541H36.1078V162.505ZM76.2949 171.074H52.4183C52.8089 173.222 53.761 174.98 55.2747 176.347C56.8371 177.665 59.0344 178.325 61.8664 178.325C63.9171 178.325 65.8458 177.934 67.6524 177.153C69.459 176.323 70.8994 175.175 71.9736 173.71C75.2451 175.322 79.5907 177.055 85.0105 178.911C83.4969 182.328 80.7381 185.063 76.7343 187.113C72.7793 189.115 67.6036 190.116 61.2072 190.116C52.9065 190.116 46.7543 188.212 42.7505 184.404C38.7954 180.546 36.8179 175.493 36.8179 169.243C36.8179 163.139 38.7954 158.183 42.7505 154.375C46.7055 150.566 52.8577 148.662 61.2072 148.662C66.1876 148.662 70.5088 149.492 74.1709 151.152C77.8329 152.812 80.6405 155.132 82.5936 158.11C84.5467 161.04 85.5232 164.409 85.5232 168.217C85.5232 169.487 85.4744 170.439 85.3767 171.074H76.2949ZM62.2326 159.721C59.7912 159.721 57.7893 160.185 56.2268 161.113C54.6643 162.041 53.5657 163.31 52.931 164.921H70.2158C69.6299 163.359 68.6778 162.114 67.3594 161.186C66.0411 160.21 64.3321 159.721 62.2326 159.721ZM134.639 177.226C134.639 178.886 134.835 180.058 135.225 180.742C135.616 181.425 136.397 181.913 137.569 182.206L137.276 189.091C135.714 189.335 134.346 189.506 133.175 189.604C132.052 189.701 130.538 189.75 128.634 189.75C124.434 189.75 121.651 188.822 120.284 186.967C118.917 185.063 118.233 182.646 118.233 179.716V177.885C116.817 181.889 114.742 184.867 112.008 186.821C109.322 188.774 105.88 189.75 101.681 189.75C96.7982 189.75 93.1117 188.774 90.6215 186.821C88.1801 184.867 86.9594 181.962 86.9594 178.105C86.9594 174.931 88.0092 172.441 90.1088 170.634C92.2084 168.828 95.4554 167.583 99.8499 166.899C96.139 164.262 92.4281 161.967 88.7172 160.014C91.6469 156.303 94.9915 153.496 98.7512 151.592C102.511 149.638 107.076 148.662 112.447 148.662C119.967 148.662 125.533 150.298 129.146 153.569C132.808 156.792 134.639 161.772 134.639 168.51V177.226ZM113.985 161.552C111.495 161.552 109.298 161.967 107.394 162.797C105.489 163.628 103.78 164.873 102.267 166.533C105.196 166.191 108.859 166.02 113.253 166.02C115.06 166.02 116.329 165.8 117.062 165.361C117.794 164.921 118.16 164.36 118.16 163.676C118.16 163.09 117.794 162.602 117.062 162.212C116.329 161.772 115.304 161.552 113.985 161.552ZM106.295 177.812C109.029 177.812 111.495 177.299 113.692 176.274C115.89 175.2 117.403 173.808 118.233 172.099V170.195C117.062 170.781 115.768 171.245 114.352 171.586C112.936 171.879 111.227 172.172 109.225 172.465L106.588 172.905C103.854 173.442 102.487 174.37 102.487 175.688C102.487 177.104 103.756 177.812 106.295 177.812ZM153.917 169.389C154.015 171.879 154.796 173.881 156.261 175.395C157.775 176.909 159.996 177.665 162.926 177.665C164.537 177.665 165.978 177.372 167.247 176.787C168.517 176.152 169.688 175.224 170.763 174.003C174.913 175.615 179.771 177.006 185.338 178.178C183.726 181.938 180.992 184.867 177.135 186.967C173.326 189.067 168.37 190.116 162.267 190.116C154.113 190.116 148.082 188.212 144.176 184.404C140.27 180.595 138.317 175.59 138.317 169.389C138.317 163.188 140.27 158.183 144.176 154.375C148.082 150.566 154.113 148.662 162.267 148.662C168.37 148.662 173.326 149.712 177.135 151.811C180.992 153.911 183.726 156.841 185.338 160.6C180.992 161.528 176.134 162.92 170.763 164.775C169.688 163.554 168.517 162.651 167.247 162.065C165.978 161.43 164.537 161.113 162.926 161.113C159.996 161.113 157.775 161.87 156.261 163.383C154.796 164.897 154.015 166.899 153.917 169.389ZM216.467 189.384C216.76 182.206 216.907 175.59 216.907 169.536C216.907 167.387 216.37 165.678 215.295 164.409C214.27 163.139 212.952 162.505 211.34 162.505C209.632 162.505 208.167 163.335 206.946 164.995C205.774 166.655 205.188 168.925 205.188 171.806L205.115 171.66C205.115 179.618 205.213 185.527 205.408 189.384H187.903C188.294 182.353 188.489 172.831 188.489 160.82C188.489 148.808 188.294 139.287 187.903 132.256H205.335L205.408 154.814L205.335 158.696C206.507 155.278 208.24 152.763 210.535 151.152C212.879 149.492 215.515 148.662 218.445 148.662C221.374 148.662 223.914 149.321 226.062 150.639C228.21 151.909 229.822 153.642 230.896 155.84C232.019 158.037 232.58 160.503 232.58 163.237V173.784C232.58 180.278 232.702 185.478 232.947 189.384H216.467ZM245.713 145.073C242.637 145.073 240.342 144.316 238.829 142.803C237.364 141.289 236.632 139.312 236.632 136.87C236.632 134.478 237.364 132.5 238.829 130.938C240.342 129.375 242.637 128.594 245.713 128.594C248.643 128.594 250.889 129.4 252.452 131.011C254.014 132.573 254.795 134.526 254.795 136.87C254.795 139.312 254.038 141.289 252.525 142.803C251.011 144.316 248.741 145.073 245.713 145.073ZM237.217 189.384C237.559 181.523 237.73 175.029 237.73 169.902C237.73 163.798 237.535 156.963 237.144 149.394H254.722C254.331 156.67 254.136 163.505 254.136 169.902C254.136 175.273 254.307 181.767 254.649 189.384H237.217ZM286.996 189.384C287.289 182.206 287.436 175.59 287.436 169.536C287.436 167.387 286.899 165.678 285.824 164.409C284.799 163.139 283.481 162.505 281.869 162.505C280.258 162.505 278.891 163.237 277.768 164.702C276.645 166.118 275.986 168.071 275.79 170.561C275.693 174.272 275.644 176.909 275.644 178.471C275.644 181.791 275.741 185.429 275.937 189.384H258.432C258.823 182.353 259.018 175.712 259.018 169.462C259.018 163.213 258.823 156.523 258.432 149.394C261.655 149.541 264.121 149.614 265.83 149.614C267.636 149.614 270.102 149.541 273.227 149.394L275.351 160.161C276.474 156.255 278.232 153.374 280.624 151.518C283.017 149.614 285.8 148.662 288.974 148.662C291.903 148.662 294.442 149.321 296.591 150.639C298.739 151.909 300.35 153.642 301.425 155.84C302.548 158.037 303.109 160.503 303.109 163.237V173.784C303.109 180.278 303.231 185.478 303.475 189.384H286.996ZM340.998 149.394H355.06C354.816 157.402 354.694 168.779 354.694 183.525C354.694 189.335 353.522 194.096 351.178 197.807C348.883 201.518 345.832 204.203 342.023 205.863C338.215 207.572 333.967 208.427 329.279 208.427C324.641 208.427 320.49 207.743 316.828 206.376C313.166 205.058 310.383 203.275 308.479 201.029L311.775 189.823C314.411 191.337 316.901 192.411 319.245 193.046C321.589 193.73 324.03 194.071 326.569 194.071C334.87 194.071 339.02 190.556 339.02 183.525C339.02 182.499 339.045 181.767 339.093 181.327C339.093 181.034 339.093 180.644 339.093 180.156C339.142 179.667 339.142 179.033 339.093 178.251C336.603 185.185 331.33 188.652 323.273 188.652C320.002 188.652 317.072 187.773 314.484 186.015C311.945 184.257 309.968 181.889 308.552 178.911C307.136 175.883 306.428 172.563 306.428 168.95C306.428 165.239 307.136 161.845 308.552 158.769C309.968 155.644 311.945 153.178 314.484 151.372C317.023 149.565 319.88 148.662 323.054 148.662C331.305 148.662 336.676 151.567 339.167 157.378L340.998 149.394ZM330.89 176.933C332.013 176.933 333.185 176.689 334.406 176.201C335.627 175.663 336.676 174.833 337.555 173.71C338.434 172.539 338.874 171.098 338.874 169.389C338.874 166.362 338.19 164.213 336.823 162.944C335.456 161.626 333.429 160.966 330.744 160.966C328.4 160.966 326.545 161.748 325.178 163.31C323.81 164.873 323.127 166.899 323.127 169.389C323.127 171.635 323.859 173.466 325.324 174.882C326.838 176.249 328.693 176.933 330.89 176.933ZM393.316 190.116C384.967 190.116 378.815 188.212 374.86 184.404C370.953 180.546 369 175.493 369 169.243C369 163.139 370.953 158.183 374.86 154.375C378.815 150.566 384.967 148.662 393.316 148.662C398.932 148.662 403.619 149.59 407.379 151.445C411.187 153.252 413.995 155.718 415.801 158.842C417.608 161.919 418.511 165.385 418.511 169.243C418.511 175.541 416.412 180.595 412.213 184.404C408.062 188.212 401.764 190.116 393.316 190.116ZM393.609 177.665C396.783 177.665 399.151 176.909 400.714 175.395C402.276 173.881 403.057 171.855 403.057 169.316C403.057 166.923 402.276 164.97 400.714 163.457C399.151 161.894 396.783 161.113 393.609 161.113C390.436 161.113 388.116 161.87 386.651 163.383C385.187 164.897 384.454 166.875 384.454 169.316C384.454 171.855 385.187 173.881 386.651 175.395C388.116 176.909 390.436 177.665 393.609 177.665ZM449.297 189.384C449.59 182.206 449.736 175.59 449.736 169.536C449.736 167.387 449.199 165.678 448.125 164.409C447.099 163.139 445.781 162.505 444.17 162.505C442.558 162.505 441.191 163.237 440.068 164.702C438.945 166.118 438.286 168.071 438.091 170.561C437.993 174.272 437.944 176.909 437.944 178.471C437.944 181.791 438.042 185.429 438.237 189.384H420.733C421.123 182.353 421.319 175.712 421.319 169.462C421.319 163.213 421.123 156.523 420.733 149.394C423.955 149.541 426.421 149.614 428.13 149.614C429.937 149.614 432.402 149.541 435.527 149.394L437.651 160.161C438.774 156.255 440.532 153.374 442.925 151.518C445.317 149.614 448.1 148.662 451.274 148.662C454.204 148.662 456.743 149.321 458.891 150.639C461.04 151.909 462.651 153.642 463.725 155.84C464.848 158.037 465.41 160.503 465.41 163.237V173.784C465.41 180.278 465.532 185.478 465.776 189.384H449.297ZM485.94 160.088C485.891 163.017 485.867 167.509 485.867 173.564C485.867 180.839 485.916 186.113 486.013 189.384H468.728L468.802 181.108C468.899 172.026 468.948 165.019 468.948 160.088C468.948 155.4 468.899 148.76 468.802 140.166L468.728 132.256H486.013C485.916 139.189 485.867 144.853 485.867 149.248C485.867 154.131 485.891 157.744 485.94 160.088ZM498.787 145.073C495.711 145.073 493.416 144.316 491.902 142.803C490.437 141.289 489.705 139.312 489.705 136.87C489.705 134.478 490.437 132.5 491.902 130.938C493.416 129.375 495.711 128.594 498.787 128.594C501.717 128.594 503.963 129.4 505.525 131.011C507.088 132.573 507.869 134.526 507.869 136.87C507.869 139.312 507.112 141.289 505.598 142.803C504.085 144.316 501.814 145.073 498.787 145.073ZM490.291 189.384C490.633 181.523 490.804 175.029 490.804 169.902C490.804 163.798 490.608 156.963 490.218 149.394H507.796C507.405 156.67 507.21 163.505 507.21 169.902C507.21 175.273 507.381 181.767 507.722 189.384H490.291ZM540.07 189.384C540.363 182.206 540.509 175.59 540.509 169.536C540.509 167.387 539.972 165.678 538.898 164.409C537.872 163.139 536.554 162.505 534.943 162.505C533.332 162.505 531.964 163.237 530.841 164.702C529.718 166.118 529.059 168.071 528.864 170.561C528.766 174.272 528.717 176.909 528.717 178.471C528.717 181.791 528.815 185.429 529.01 189.384H511.506C511.896 182.353 512.092 175.712 512.092 169.462C512.092 163.213 511.896 156.523 511.506 149.394C514.728 149.541 517.194 149.614 518.903 149.614C520.71 149.614 523.175 149.541 526.3 149.394L528.424 160.161C529.547 156.255 531.305 153.374 533.698 151.518C536.09 149.614 538.873 148.662 542.047 148.662C544.977 148.662 547.516 149.321 549.664 150.639C551.813 151.909 553.424 153.642 554.498 155.84C555.621 158.037 556.183 160.503 556.183 163.237V173.784C556.183 180.278 556.305 185.478 556.549 189.384H540.07ZM598.246 171.074H574.369C574.76 173.222 575.712 174.98 577.226 176.347C578.788 177.665 580.986 178.325 583.818 178.325C585.868 178.325 587.797 177.934 589.604 177.153C591.41 176.323 592.851 175.175 593.925 173.71C597.196 175.322 601.542 177.055 606.962 178.911C605.448 182.328 602.689 185.063 598.685 187.113C594.73 189.115 589.555 190.116 583.158 190.116C574.858 190.116 568.705 188.212 564.702 184.404C560.747 180.546 558.769 175.493 558.769 169.243C558.769 163.139 560.747 158.183 564.702 154.375C568.657 150.566 574.809 148.662 583.158 148.662C588.139 148.662 592.46 149.492 596.122 151.152C599.784 152.812 602.592 155.132 604.545 158.11C606.498 161.04 607.474 164.409 607.474 168.217C607.474 169.487 607.426 170.439 607.328 171.074H598.246ZM584.184 159.721C581.742 159.721 579.74 160.185 578.178 161.113C576.615 162.041 575.517 163.31 574.882 164.921H592.167C591.581 163.359 590.629 162.114 589.311 161.186C587.992 160.21 586.283 159.721 584.184 159.721ZM616.674 174.516C618.871 174.516 620.702 175.371 622.167 177.079C623.681 178.74 624.438 181.059 624.438 184.037C624.438 186.479 623.998 189.042 623.119 191.728C622.289 194.413 621.117 196.586 619.604 198.246H613.378C615.429 195.463 616.723 192.729 617.26 190.043C614.721 190.043 612.695 189.286 611.181 187.773C609.667 186.259 608.911 184.428 608.911 182.28C608.911 180.131 609.667 178.3 611.181 176.787C612.695 175.273 614.526 174.516 616.674 174.516ZM59.6915 262.384C60.0821 255.988 60.2774 249.371 60.2774 242.536C60.2774 240.338 59.7159 238.629 58.5928 237.409C57.5186 236.139 56.0782 235.505 54.2716 235.505C52.6115 235.505 51.1711 236.237 49.9504 237.702C48.7785 239.167 48.1926 241.291 48.1926 244.074V244C48.1926 252.643 48.3147 258.771 48.5588 262.384H32.0796C32.3725 255.206 32.519 248.59 32.519 242.536C32.519 240.387 31.9819 238.678 30.9077 237.409C29.8823 236.139 28.564 235.505 26.9527 235.505C25.2437 235.505 23.8033 236.237 22.6315 237.702C21.5085 239.118 20.8493 241.071 20.654 243.561C20.5563 247.272 20.5075 249.909 20.5075 251.471C20.5075 254.791 20.6051 258.429 20.8005 262.384H3.29585C3.68647 255.353 3.88178 248.712 3.88178 242.462C3.88178 236.213 3.68647 229.523 3.29585 222.394C6.51845 222.541 8.98424 222.614 10.6932 222.614C12.4998 222.614 14.9656 222.541 18.0905 222.394L20.2878 233.234C21.4108 229.279 23.193 226.374 25.6344 224.518C28.0757 222.614 30.8833 221.662 34.0571 221.662C37.8656 221.662 40.9662 222.712 43.3587 224.811C45.8001 226.911 47.3137 229.645 47.8996 233.014C49.0227 229.548 50.9025 226.789 53.5392 224.738C56.1759 222.687 59.1788 221.662 62.5479 221.662C66.9423 221.662 70.3846 223.151 72.8748 226.13C75.365 229.059 76.6101 233.088 76.6101 238.214V250.372C76.6101 255.89 76.659 259.894 76.7566 262.384H59.6915ZM127.341 250.226C127.341 251.886 127.536 253.058 127.927 253.742C128.318 254.425 129.099 254.913 130.271 255.206L129.978 262.091C128.415 262.335 127.048 262.506 125.876 262.604C124.753 262.701 123.239 262.75 121.335 262.75C117.136 262.75 114.353 261.822 112.986 259.967C111.619 258.063 110.935 255.646 110.935 252.716V250.885C109.519 254.889 107.444 257.867 104.71 259.821C102.024 261.774 98.5817 262.75 94.3825 262.75C89.4998 262.75 85.8133 261.774 83.3231 259.821C80.8818 257.867 79.6611 254.962 79.6611 251.105C79.6611 247.931 80.7109 245.441 82.8104 243.634C84.91 241.828 88.157 240.583 92.5515 239.899C88.8406 237.262 85.1297 234.967 81.4189 233.014C84.3485 229.303 87.6932 226.496 91.4529 224.592C95.2126 222.638 99.7779 221.662 105.149 221.662C112.668 221.662 118.235 223.298 121.848 226.569C125.51 229.792 127.341 234.772 127.341 241.51V250.226ZM106.687 234.552C104.197 234.552 102 234.967 100.095 235.797C98.1911 236.628 96.4821 237.873 94.9685 239.533C97.8981 239.191 101.56 239.02 105.955 239.02C107.761 239.02 109.031 238.8 109.763 238.361C110.496 237.921 110.862 237.36 110.862 236.676C110.862 236.09 110.496 235.602 109.763 235.212C109.031 234.772 108.005 234.552 106.687 234.552ZM98.9967 250.812C101.731 250.812 104.197 250.299 106.394 249.274C108.591 248.2 110.105 246.808 110.935 245.099V243.195C109.763 243.781 108.469 244.245 107.053 244.586C105.637 244.879 103.928 245.172 101.926 245.465L99.2897 245.905C96.5553 246.442 95.1882 247.37 95.1882 248.688C95.1882 250.104 96.4577 250.812 98.9967 250.812ZM179.651 205.402C179.358 214.484 179.211 223.981 179.211 233.893C179.211 243.708 179.358 253.204 179.651 262.384H163.098L163.318 253.595C161.902 256.866 159.851 259.283 157.166 260.846C154.48 262.36 151.306 263.116 147.644 263.116C144.47 263.116 141.614 262.213 139.075 260.406C136.536 258.6 134.558 256.158 133.142 253.082C131.726 249.957 131.018 246.539 131.018 242.829C131.018 239.167 131.726 235.724 133.142 232.502C134.558 229.23 136.536 226.618 139.075 224.665C141.663 222.663 144.592 221.662 147.864 221.662C151.672 221.662 154.919 222.468 157.605 224.079C160.339 225.641 162.366 228.083 163.684 231.403C163.684 228.62 163.586 224.152 163.391 218C163.196 212.043 163.098 207.844 163.098 205.402H179.651ZM155.335 250.812C157.727 250.812 159.68 250.153 161.194 248.834C162.707 247.467 163.464 245.319 163.464 242.389C163.464 239.801 162.707 237.897 161.194 236.676C159.68 235.456 157.776 234.845 155.481 234.845C153.284 234.845 151.428 235.553 149.915 236.969C148.45 238.336 147.717 240.143 147.717 242.389C147.717 244.879 148.401 246.906 149.768 248.468C151.135 250.031 152.991 250.812 155.335 250.812ZM221.352 244.074H197.476C197.866 246.222 198.818 247.98 200.332 249.347C201.894 250.665 204.092 251.325 206.924 251.325C208.974 251.325 210.903 250.934 212.71 250.153C214.516 249.323 215.957 248.175 217.031 246.71C220.302 248.322 224.648 250.055 230.068 251.911C228.554 255.328 225.795 258.063 221.792 260.113C217.837 262.115 212.661 263.116 206.265 263.116C197.964 263.116 191.812 261.212 187.808 257.404C183.853 253.546 181.875 248.493 181.875 242.243C181.875 236.139 183.853 231.183 187.808 227.375C191.763 223.566 197.915 221.662 206.265 221.662C211.245 221.662 215.566 222.492 219.228 224.152C222.89 225.812 225.698 228.132 227.651 231.11C229.604 234.04 230.581 237.409 230.581 241.217C230.581 242.487 230.532 243.439 230.434 244.074H221.352ZM207.29 232.721C204.849 232.721 202.847 233.185 201.284 234.113C199.722 235.041 198.623 236.31 197.988 237.921H215.273C214.687 236.359 213.735 235.114 212.417 234.186C211.098 233.21 209.389 232.721 207.29 232.721ZM283.227 244.074H259.35C259.741 246.222 260.693 247.98 262.206 249.347C263.769 250.665 265.966 251.325 268.798 251.325C270.849 251.325 272.777 250.934 274.584 250.153C276.391 249.323 277.831 248.175 278.905 246.71C282.177 248.322 286.522 250.055 291.942 251.911C290.429 255.328 287.67 258.063 283.666 260.113C279.711 262.115 274.535 263.116 268.139 263.116C259.838 263.116 253.686 261.212 249.682 257.404C245.727 253.546 243.75 248.493 243.75 242.243C243.75 236.139 245.727 231.183 249.682 227.375C253.637 223.566 259.789 221.662 268.139 221.662C273.119 221.662 277.441 222.492 281.103 224.152C284.765 225.812 287.572 228.132 289.525 231.11C291.478 234.04 292.455 237.409 292.455 241.217C292.455 242.487 292.406 243.439 292.308 244.074H283.227ZM269.164 232.721C266.723 232.721 264.721 233.185 263.159 234.113C261.596 235.041 260.497 236.31 259.863 237.921H277.148C276.562 236.359 275.609 235.114 274.291 234.186C272.973 233.21 271.264 232.721 269.164 232.721ZM341.571 250.226C341.571 251.886 341.766 253.058 342.157 253.742C342.548 254.425 343.329 254.913 344.501 255.206L344.208 262.091C342.645 262.335 341.278 262.506 340.106 262.604C338.983 262.701 337.47 262.75 335.565 262.75C331.366 262.75 328.583 261.822 327.216 259.967C325.849 258.063 325.165 255.646 325.165 252.716V250.885C323.749 254.889 321.674 257.867 318.94 259.821C316.254 261.774 312.812 262.75 308.613 262.75C303.73 262.75 300.043 261.774 297.553 259.821C295.112 257.867 293.891 254.962 293.891 251.105C293.891 247.931 294.941 245.441 297.041 243.634C299.14 241.828 302.387 240.583 306.782 239.899C303.071 237.262 299.36 234.967 295.649 233.014C298.579 229.303 301.923 226.496 305.683 224.592C309.443 222.638 314.008 221.662 319.379 221.662C326.898 221.662 332.465 223.298 336.078 226.569C339.74 229.792 341.571 234.772 341.571 241.51V250.226ZM320.917 234.552C318.427 234.552 316.23 234.967 314.325 235.797C312.421 236.628 310.712 237.873 309.199 239.533C312.128 239.191 315.79 239.02 320.185 239.02C321.991 239.02 323.261 238.8 323.993 238.361C324.726 237.921 325.092 237.36 325.092 236.676C325.092 236.09 324.726 235.602 323.993 235.212C323.261 234.772 322.235 234.552 320.917 234.552ZM313.227 250.812C315.961 250.812 318.427 250.299 320.624 249.274C322.821 248.2 324.335 246.808 325.165 245.099V243.195C323.993 243.781 322.699 244.245 321.283 244.586C319.867 244.879 318.158 245.172 316.156 245.465L313.52 245.905C310.785 246.442 309.418 247.37 309.418 248.688C309.418 250.104 310.688 250.812 313.227 250.812ZM369.638 263.116C365.536 263.116 361.362 262.555 357.114 261.432C352.914 260.26 348.959 258.502 345.249 256.158L352.939 245.685C355.185 247.296 357.895 248.566 361.069 249.494C364.242 250.372 366.977 250.812 369.272 250.812C371.469 250.812 373.153 250.519 374.325 249.933C375.546 249.298 376.156 248.493 376.156 247.516C376.156 246.735 375.863 246.124 375.277 245.685C374.691 245.246 373.886 245.026 372.86 245.026C372.226 245.026 371.493 245.05 370.663 245.099C369.882 245.148 369.247 245.197 368.759 245.246C366.22 245.539 363.608 245.685 360.922 245.685C356.577 245.685 353.037 244.879 350.302 243.268C347.617 241.608 346.274 238.922 346.274 235.212C346.274 230.915 348.3 227.594 352.353 225.251C356.406 222.858 362.363 221.662 370.224 221.662C374.081 221.662 377.963 222.223 381.869 223.346C385.824 224.421 389.315 226.056 392.343 228.254L383.92 236.75C381.137 235.285 378.524 234.259 376.083 233.673C373.691 233.039 371.274 232.721 368.832 232.721C367.123 232.721 365.658 233.063 364.438 233.747C363.217 234.43 362.607 235.212 362.607 236.09C362.607 236.774 362.851 237.311 363.339 237.702C363.876 238.092 364.56 238.288 365.39 238.288C366.22 238.288 367.367 238.214 368.832 238.068C372.397 237.824 375.058 237.702 376.815 237.702C381.893 237.702 385.824 238.556 388.607 240.265C391.39 241.974 392.782 244.586 392.782 248.102C392.782 253.375 390.731 257.208 386.63 259.601C382.528 261.945 376.864 263.116 369.638 263.116ZM443.171 222.394L441.486 226.642C436.848 238.996 431.989 250.91 426.911 262.384C424.274 268.243 420.466 272.931 415.486 276.446C410.505 280.011 404.255 281.72 396.736 281.573C395.808 277.52 395.027 274.347 394.392 272.052C393.806 269.806 393.025 267.535 392.048 265.24C394.734 265.875 397.249 266.193 399.592 266.193C403.401 266.193 406.428 265.387 408.674 263.776C406.916 258.551 404.841 252.936 402.449 246.93C400.056 240.924 396.589 232.746 392.048 222.394H409.407C409.992 224.836 410.798 227.668 411.824 230.89C412.849 234.113 413.874 237.213 414.9 240.192C415.193 241.12 415.656 242.536 416.291 244.44C416.975 246.295 417.512 247.858 417.903 249.127L419.807 243.341C423.469 232.746 425.642 225.763 426.325 222.394H443.171ZM450.22 263.116C448.071 263.116 446.24 262.36 444.726 260.846C443.213 259.283 442.456 257.428 442.456 255.28C442.456 253.131 443.213 251.3 444.726 249.787C446.24 248.273 448.071 247.516 450.22 247.516C452.319 247.516 454.126 248.297 455.639 249.86C457.202 251.373 457.983 253.18 457.983 255.28C457.983 257.428 457.202 259.283 455.639 260.846C454.126 262.36 452.319 263.116 450.22 263.116Z" fill="black"/>
<path d="M9.55972 334.187C8.3184 334.187 7.17547 333.99 6.13094 333.597C5.10155 333.188 4.20083 332.62 3.42878 331.894C2.65674 331.152 2.05878 330.281 1.63492 329.282C1.21105 328.283 0.999116 327.193 0.999116 326.012C0.999116 324.832 1.21105 323.742 1.63492 322.743C2.05878 321.743 2.65674 320.881 3.42878 320.154C4.21597 319.412 5.13182 318.845 6.17635 318.451C7.22088 318.042 8.36381 317.838 9.60513 317.838C10.9524 317.838 12.1635 318.057 13.2383 318.496C14.3282 318.935 15.2441 319.579 15.9859 320.426L14.1239 322.243C13.5032 321.622 12.8296 321.168 12.1029 320.881C11.3914 320.578 10.6043 320.426 9.74138 320.426C8.90878 320.426 8.13674 320.563 7.42525 320.835C6.71375 321.108 6.10066 321.494 5.58597 321.993C5.07127 322.493 4.67011 323.083 4.38248 323.764C4.11 324.446 3.97376 325.195 3.97376 326.012C3.97376 326.815 4.11 327.557 4.38248 328.238C4.67011 328.919 5.07127 329.517 5.58597 330.032C6.10066 330.531 6.70619 330.917 7.40254 331.19C8.09889 331.462 8.87094 331.598 9.71867 331.598C10.5059 331.598 11.2628 331.477 11.9894 331.235C12.7312 330.978 13.4351 330.554 14.1012 329.963L15.7815 332.166C14.9489 332.832 13.9801 333.339 12.875 333.687C11.785 334.02 10.6799 334.187 9.55972 334.187ZM12.9885 331.78V325.831H15.7815V332.166L12.9885 331.78ZM25.9648 333.96V331.508L25.8058 330.985V326.694C25.8058 325.861 25.556 325.218 25.0565 324.764C24.5569 324.294 23.8 324.06 22.7858 324.06C22.1045 324.06 21.4309 324.166 20.7648 324.378C20.1139 324.589 19.5613 324.885 19.1072 325.263L17.9945 323.197C18.6455 322.697 19.4175 322.326 20.3107 322.084C21.219 321.827 22.1575 321.698 23.1264 321.698C24.8824 321.698 26.2373 322.122 27.191 322.97C28.1598 323.802 28.6442 325.097 28.6442 326.853V333.96H25.9648ZM22.15 334.119C21.2417 334.119 20.4469 333.967 19.7657 333.665C19.0845 333.347 18.5547 332.915 18.1762 332.37C17.8129 331.81 17.6312 331.182 17.6312 330.486C17.6312 329.805 17.7902 329.191 18.1081 328.646C18.4411 328.101 18.9785 327.67 19.7203 327.352C20.4621 327.034 21.446 326.875 22.6722 326.875H26.1918V328.76H22.8766C21.9078 328.76 21.2568 328.919 20.9238 329.237C20.5907 329.54 20.4242 329.918 20.4242 330.372C20.4242 330.887 20.6286 331.296 21.0373 331.598C21.446 331.901 22.0137 332.053 22.7403 332.053C23.4367 332.053 24.0574 331.894 24.6023 331.576C25.1624 331.258 25.5636 330.788 25.8058 330.168L26.2827 331.871C26.0102 332.582 25.5182 333.135 24.8067 333.528C24.1103 333.922 23.2248 334.119 22.15 334.119ZM31.3787 333.96V321.834H34.2171V333.96H31.3787ZM32.8092 319.836C32.2794 319.836 31.8404 319.67 31.4922 319.337C31.1592 319.003 30.9926 318.602 30.9926 318.133C30.9926 317.649 31.1592 317.247 31.4922 316.93C31.8404 316.597 32.2794 316.43 32.8092 316.43C33.339 316.43 33.7705 316.589 34.1035 316.907C34.4517 317.21 34.6258 317.596 34.6258 318.065C34.6258 318.564 34.4593 318.988 34.1262 319.337C33.7932 319.67 33.3542 319.836 32.8092 319.836ZM43.9144 321.698C44.8833 321.698 45.7461 321.887 46.5031 322.266C47.2751 322.644 47.8806 323.227 48.3196 324.014C48.7586 324.786 48.9781 325.785 48.9781 327.012V333.96H46.1397V327.375C46.1397 326.3 45.8824 325.498 45.3677 324.968C44.8681 324.438 44.1642 324.173 43.2559 324.173C42.5898 324.173 41.9995 324.309 41.4848 324.582C40.9701 324.854 40.5689 325.263 40.2813 325.808C40.0088 326.338 39.8726 327.012 39.8726 327.829V333.96H37.0342V321.834H39.7363V325.104L39.2595 324.105C39.6833 323.333 40.2964 322.743 41.0987 322.334C41.9162 321.91 42.8548 321.698 43.9144 321.698ZM60.7844 334.119C59.7702 334.119 58.7938 333.99 57.8552 333.733C56.9318 333.46 56.1976 333.135 55.6526 332.756L56.7426 330.599C57.2875 330.947 57.9385 331.235 58.6954 331.462C59.4523 331.689 60.2092 331.803 60.9661 331.803C61.8593 331.803 62.5026 331.682 62.8962 331.439C63.3049 331.197 63.5093 330.872 63.5093 330.463C63.5093 330.13 63.3731 329.88 63.1006 329.714C62.8281 329.532 62.4723 329.396 62.0333 329.305C61.5943 329.214 61.1023 329.131 60.5574 329.055C60.0275 328.979 59.4901 328.881 58.9452 328.76C58.4153 328.624 57.9309 328.435 57.4919 328.192C57.0529 327.935 56.6972 327.594 56.4247 327.17C56.1522 326.747 56.0159 326.187 56.0159 325.49C56.0159 324.718 56.2354 324.052 56.6744 323.492C57.1135 322.917 57.7265 322.478 58.5137 322.175C59.316 321.857 60.2622 321.698 61.3521 321.698C62.1696 321.698 62.9946 321.789 63.8272 321.971C64.6598 322.152 65.3486 322.41 65.8936 322.743L64.8036 324.9C64.2284 324.552 63.6455 324.317 63.0552 324.196C62.4799 324.06 61.9047 323.991 61.3294 323.991C60.4665 323.991 59.8232 324.12 59.3993 324.378C58.9906 324.635 58.7862 324.96 58.7862 325.354C58.7862 325.717 58.9225 325.99 59.1949 326.171C59.4674 326.353 59.8232 326.497 60.2622 326.603C60.7012 326.709 61.1856 326.8 61.7154 326.875C62.2604 326.936 62.7978 327.034 63.3276 327.17C63.8575 327.307 64.3419 327.496 64.7809 327.738C65.2351 327.965 65.5984 328.291 65.8709 328.715C66.1433 329.138 66.2796 329.691 66.2796 330.372C66.2796 331.129 66.0525 331.788 65.5984 332.348C65.1594 332.908 64.5311 333.347 63.7137 333.665C62.8962 333.967 61.9198 334.119 60.7844 334.119ZM72.9475 334.119C71.9181 334.119 71.0098 333.93 70.2226 333.551C69.4355 333.158 68.8224 332.567 68.3834 331.78C67.9444 330.978 67.7249 329.971 67.7249 328.76V321.834H70.5633V328.374C70.5633 329.464 70.8055 330.281 71.2899 330.826C71.7894 331.356 72.4934 331.621 73.4017 331.621C74.0677 331.621 74.643 331.485 75.1274 331.212C75.627 330.94 76.013 330.531 76.2855 329.986C76.5731 329.441 76.7169 328.768 76.7169 327.965V321.834H79.5553V333.96H76.8531V330.69L77.33 331.689C76.9213 332.476 76.3233 333.082 75.5361 333.506C74.7489 333.915 73.8861 334.119 72.9475 334.119ZM89.0847 334.119C88.0553 334.119 87.1394 333.892 86.3371 333.438C85.5348 332.984 84.899 332.302 84.4297 331.394C83.9756 330.471 83.7485 329.305 83.7485 327.897C83.7485 326.474 83.9831 325.308 84.4524 324.4C84.9368 323.492 85.5802 322.818 86.3825 322.379C87.2 321.925 88.1007 321.698 89.0847 321.698C90.2806 321.698 91.3327 321.955 92.241 322.47C93.1644 322.985 93.891 323.704 94.4209 324.627C94.9658 325.551 95.2383 326.641 95.2383 327.897C95.2383 329.154 94.9658 330.244 94.4209 331.167C93.891 332.09 93.1644 332.817 92.241 333.347C91.3327 333.862 90.2806 334.119 89.0847 334.119ZM82.3634 333.96V317.111H85.2018V324.65L84.9747 327.874L85.0655 331.099V333.96H82.3634ZM88.7668 331.689C89.448 331.689 90.0535 331.538 90.5834 331.235C91.1283 330.932 91.5598 330.493 91.8777 329.918C92.1956 329.343 92.3545 328.669 92.3545 327.897C92.3545 327.11 92.1956 326.436 91.8777 325.876C91.5598 325.301 91.1283 324.862 90.5834 324.559C90.0535 324.256 89.448 324.105 88.7668 324.105C88.0856 324.105 87.4725 324.256 86.9275 324.559C86.3825 324.862 85.9511 325.301 85.6332 325.876C85.3153 326.436 85.1563 327.11 85.1563 327.897C85.1563 328.669 85.3153 329.343 85.6332 329.918C85.9511 330.493 86.3825 330.932 86.9275 331.235C87.4725 331.538 88.0856 331.689 88.7668 331.689ZM95.773 338.524C95.2432 338.524 94.7436 338.464 94.2743 338.342C93.7899 338.236 93.3812 338.062 93.0481 337.82L93.8656 335.708C94.3046 336.026 94.8571 336.185 95.5232 336.185C96.0379 336.185 96.4391 336.019 96.7267 335.686C97.0143 335.368 97.1581 334.891 97.1581 334.255V321.834H99.9965V334.187C99.9965 335.519 99.6257 336.571 98.8839 337.343C98.1573 338.13 97.1203 338.524 95.773 338.524ZM98.566 319.836C98.0362 319.836 97.5971 319.67 97.249 319.337C96.9159 319.003 96.7494 318.602 96.7494 318.133C96.7494 317.649 96.9159 317.247 97.249 316.93C97.5971 316.597 98.0362 316.43 98.566 316.43C99.0958 316.43 99.5273 316.589 99.8603 316.907C100.208 317.21 100.383 317.596 100.383 318.065C100.383 318.564 100.216 318.988 99.883 319.337C99.55 319.67 99.111 319.836 98.566 319.836ZM108.51 334.119C107.163 334.119 105.982 333.854 104.968 333.324C103.969 332.779 103.189 332.037 102.629 331.099C102.084 330.16 101.811 329.093 101.811 327.897C101.811 326.686 102.076 325.619 102.606 324.695C103.151 323.757 103.893 323.023 104.831 322.493C105.785 321.963 106.867 321.698 108.079 321.698C109.259 321.698 110.311 321.955 111.235 322.47C112.158 322.985 112.885 323.711 113.415 324.65C113.945 325.589 114.209 326.694 114.209 327.965C114.209 328.086 114.202 328.223 114.187 328.374C114.187 328.525 114.179 328.669 114.164 328.805H104.059V326.921H112.665L111.553 327.511C111.568 326.815 111.424 326.202 111.121 325.672C110.819 325.142 110.402 324.726 109.872 324.423C109.358 324.12 108.76 323.969 108.079 323.969C107.382 323.969 106.769 324.12 106.239 324.423C105.725 324.726 105.316 325.15 105.013 325.695C104.725 326.224 104.582 326.853 104.582 327.579V328.033C104.582 328.76 104.748 329.403 105.081 329.963C105.414 330.524 105.883 330.955 106.489 331.258C107.095 331.561 107.791 331.712 108.578 331.712C109.259 331.712 109.872 331.606 110.417 331.394C110.962 331.182 111.447 330.849 111.871 330.395L113.392 332.143C112.847 332.779 112.158 333.271 111.326 333.619C110.508 333.952 109.57 334.119 108.51 334.119ZM121.591 334.119C120.319 334.119 119.184 333.854 118.185 333.324C117.201 332.779 116.429 332.037 115.869 331.099C115.309 330.16 115.029 329.093 115.029 327.897C115.029 326.686 115.309 325.619 115.869 324.695C116.429 323.757 117.201 323.023 118.185 322.493C119.184 321.963 120.319 321.698 121.591 321.698C122.772 321.698 123.809 321.94 124.702 322.425C125.61 322.894 126.299 323.59 126.768 324.514L124.588 325.785C124.225 325.21 123.778 324.786 123.249 324.514C122.734 324.241 122.174 324.105 121.568 324.105C120.872 324.105 120.244 324.256 119.683 324.559C119.123 324.862 118.684 325.301 118.366 325.876C118.049 326.436 117.89 327.11 117.89 327.897C117.89 328.684 118.049 329.366 118.366 329.941C118.684 330.501 119.123 330.932 119.683 331.235C120.244 331.538 120.872 331.689 121.568 331.689C122.174 331.689 122.734 331.553 123.249 331.28C123.778 331.008 124.225 330.584 124.588 330.009L126.768 331.28C126.299 332.189 125.61 332.893 124.702 333.392C123.809 333.877 122.772 334.119 121.591 334.119ZM133.033 334.119C131.701 334.119 130.671 333.778 129.945 333.097C129.218 332.401 128.855 331.379 128.855 330.032V319.155H131.693V329.963C131.693 330.539 131.837 330.985 132.125 331.303C132.427 331.621 132.844 331.78 133.373 331.78C134.009 331.78 134.539 331.614 134.963 331.28L135.758 333.301C135.425 333.574 135.016 333.778 134.531 333.915C134.047 334.051 133.548 334.119 133.033 334.119ZM126.856 324.196V321.925H134.94V324.196H126.856ZM148.115 334.119C146.843 334.119 145.708 333.854 144.709 333.324C143.725 332.779 142.953 332.037 142.393 331.099C141.833 330.16 141.552 329.093 141.552 327.897C141.552 326.686 141.833 325.619 142.393 324.695C142.953 323.757 143.725 323.023 144.709 322.493C145.708 321.963 146.843 321.698 148.115 321.698C149.296 321.698 150.333 321.94 151.226 322.425C152.134 322.894 152.823 323.59 153.292 324.514L151.112 325.785C150.749 325.21 150.302 324.786 149.772 324.514C149.258 324.241 148.698 324.105 148.092 324.105C147.396 324.105 146.768 324.256 146.207 324.559C145.647 324.862 145.208 325.301 144.89 325.876C144.573 326.436 144.414 327.11 144.414 327.897C144.414 328.684 144.573 329.366 144.89 329.941C145.208 330.501 145.647 330.932 146.207 331.235C146.768 331.538 147.396 331.689 148.092 331.689C148.698 331.689 149.258 331.553 149.772 331.28C150.302 331.008 150.749 330.584 151.112 330.009L153.292 331.28C152.823 332.189 152.134 332.893 151.226 333.392C150.333 333.877 149.296 334.119 148.115 334.119ZM160.359 334.119C159.012 334.119 157.831 333.854 156.817 333.324C155.818 332.779 155.038 332.037 154.478 331.099C153.933 330.16 153.661 329.093 153.661 327.897C153.661 326.686 153.926 325.619 154.456 324.695C155.001 323.757 155.742 323.023 156.681 322.493C157.635 321.963 158.717 321.698 159.928 321.698C161.109 321.698 162.161 321.955 163.084 322.47C164.008 322.985 164.734 323.711 165.264 324.65C165.794 325.589 166.059 326.694 166.059 327.965C166.059 328.086 166.051 328.223 166.036 328.374C166.036 328.525 166.029 328.669 166.014 328.805H155.909V326.921H164.515L163.402 327.511C163.417 326.815 163.274 326.202 162.971 325.672C162.668 325.142 162.252 324.726 161.722 324.423C161.207 324.12 160.609 323.969 159.928 323.969C159.232 323.969 158.619 324.12 158.089 324.423C157.574 324.726 157.165 325.15 156.863 325.695C156.575 326.224 156.431 326.853 156.431 327.579V328.033C156.431 328.76 156.598 329.403 156.931 329.963C157.264 330.524 157.733 330.955 158.339 331.258C158.944 331.561 159.64 331.712 160.428 331.712C161.109 331.712 161.722 331.606 162.267 331.394C162.812 331.182 163.296 330.849 163.72 330.395L165.242 332.143C164.697 332.779 164.008 333.271 163.175 333.619C162.358 333.952 161.419 334.119 160.359 334.119ZM167.877 333.96V321.834H170.579V325.172L170.261 324.196C170.625 323.378 171.192 322.758 171.964 322.334C172.752 321.91 173.728 321.698 174.894 321.698V324.4C174.773 324.37 174.659 324.355 174.553 324.355C174.447 324.34 174.341 324.332 174.235 324.332C173.16 324.332 172.305 324.65 171.669 325.286C171.033 325.906 170.716 326.837 170.716 328.079V333.96H167.877ZM181.401 334.119C180.069 334.119 179.039 333.778 178.313 333.097C177.586 332.401 177.223 331.379 177.223 330.032V319.155H180.061V329.963C180.061 330.539 180.205 330.985 180.493 331.303C180.795 331.621 181.212 331.78 181.741 331.78C182.377 331.78 182.907 331.614 183.331 331.28L184.126 333.301C183.793 333.574 183.384 333.778 182.9 333.915C182.415 334.051 181.916 334.119 181.401 334.119ZM175.225 324.196V321.925H183.308V324.196H175.225ZM185.552 333.96V321.834H188.391V333.96H185.552ZM186.983 319.836C186.453 319.836 186.014 319.67 185.666 319.337C185.333 319.003 185.166 318.602 185.166 318.133C185.166 317.649 185.333 317.247 185.666 316.93C186.014 316.597 186.453 316.43 186.983 316.43C187.513 316.43 187.944 316.589 188.277 316.907C188.625 317.21 188.8 317.596 188.8 318.065C188.8 318.564 188.633 318.988 188.3 319.337C187.967 319.67 187.528 319.836 186.983 319.836ZM191.594 333.96V321.153C191.594 319.881 191.965 318.867 192.707 318.11C193.463 317.338 194.538 316.952 195.931 316.952C196.431 316.952 196.9 317.005 197.339 317.111C197.793 317.217 198.171 317.384 198.474 317.611L197.702 319.745C197.49 319.579 197.248 319.458 196.976 319.382C196.703 319.291 196.423 319.246 196.135 319.246C195.545 319.246 195.098 319.412 194.796 319.745C194.493 320.063 194.341 320.548 194.341 321.198V322.561L194.432 323.833V333.96H191.594ZM189.596 324.196V321.925H197.679V324.196H189.596ZM199.678 333.96V321.834H202.516V333.96H199.678ZM201.108 319.836C200.578 319.836 200.139 319.67 199.791 319.337C199.458 319.003 199.292 318.602 199.292 318.133C199.292 317.649 199.458 317.247 199.791 316.93C200.139 316.597 200.578 316.43 201.108 316.43C201.638 316.43 202.069 316.589 202.403 316.907C202.751 317.21 202.925 317.596 202.925 318.065C202.925 318.564 202.758 318.988 202.425 319.337C202.092 319.67 201.653 319.836 201.108 319.836ZM210.897 334.119C209.626 334.119 208.491 333.854 207.491 333.324C206.507 332.779 205.735 332.037 205.175 331.099C204.615 330.16 204.335 329.093 204.335 327.897C204.335 326.686 204.615 325.619 205.175 324.695C205.735 323.757 206.507 323.023 207.491 322.493C208.491 321.963 209.626 321.698 210.897 321.698C212.078 321.698 213.115 321.94 214.008 322.425C214.917 322.894 215.605 323.59 216.075 324.514L213.895 325.785C213.532 325.21 213.085 324.786 212.555 324.514C212.04 324.241 211.48 324.105 210.875 324.105C210.178 324.105 209.55 324.256 208.99 324.559C208.43 324.862 207.991 325.301 207.673 325.876C207.355 326.436 207.196 327.11 207.196 327.897C207.196 328.684 207.355 329.366 207.673 329.941C207.991 330.501 208.43 330.932 208.99 331.235C209.55 331.538 210.178 331.689 210.875 331.689C211.48 331.689 212.04 331.553 212.555 331.28C213.085 331.008 213.532 330.584 213.895 330.009L216.075 331.28C215.605 332.189 214.917 332.893 214.008 333.392C213.115 333.877 212.078 334.119 210.897 334.119ZM225.091 333.96V331.508L224.932 330.985V326.694C224.932 325.861 224.682 325.218 224.182 324.764C223.683 324.294 222.926 324.06 221.912 324.06C221.231 324.06 220.557 324.166 219.891 324.378C219.24 324.589 218.687 324.885 218.233 325.263L217.121 323.197C217.771 322.697 218.543 322.326 219.437 322.084C220.345 321.827 221.283 321.698 222.252 321.698C224.008 321.698 225.363 322.122 226.317 322.97C227.286 323.802 227.77 325.097 227.77 326.853V333.96H225.091ZM221.276 334.119C220.368 334.119 219.573 333.967 218.892 333.665C218.21 333.347 217.681 332.915 217.302 332.37C216.939 331.81 216.757 331.182 216.757 330.486C216.757 329.805 216.916 329.191 217.234 328.646C217.567 328.101 218.104 327.67 218.846 327.352C219.588 327.034 220.572 326.875 221.798 326.875H225.318V328.76H222.003C221.034 328.76 220.383 328.919 220.05 329.237C219.717 329.54 219.55 329.918 219.55 330.372C219.55 330.887 219.755 331.296 220.163 331.598C220.572 331.901 221.14 332.053 221.866 332.053C222.563 332.053 223.183 331.894 223.728 331.576C224.288 331.258 224.69 330.788 224.932 330.168L225.409 331.871C225.136 332.582 224.644 333.135 223.933 333.528C223.236 333.922 222.351 334.119 221.276 334.119ZM235.069 334.119C233.737 334.119 232.707 333.778 231.981 333.097C231.254 332.401 230.891 331.379 230.891 330.032V319.155H233.729V329.963C233.729 330.539 233.873 330.985 234.16 331.303C234.463 331.621 234.88 331.78 235.409 331.78C236.045 331.78 236.575 331.614 236.999 331.28L237.794 333.301C237.461 333.574 237.052 333.778 236.567 333.915C236.083 334.051 235.583 334.119 235.069 334.119ZM228.892 324.196V321.925H236.976V324.196H228.892ZM239.22 333.96V321.834H242.059V333.96H239.22ZM240.651 319.836C240.121 319.836 239.682 319.67 239.334 319.337C239.001 319.003 238.834 318.602 238.834 318.133C238.834 317.649 239.001 317.247 239.334 316.93C239.682 316.597 240.121 316.43 240.651 316.43C241.181 316.43 241.612 316.589 241.945 316.907C242.293 317.21 242.467 317.596 242.467 318.065C242.467 318.564 242.301 318.988 241.968 319.337C241.635 319.67 241.196 319.836 240.651 319.836ZM250.325 334.119C249.084 334.119 247.979 333.854 247.01 333.324C246.041 332.779 245.277 332.037 244.717 331.099C244.157 330.16 243.877 329.093 243.877 327.897C243.877 326.686 244.157 325.619 244.717 324.695C245.277 323.757 246.041 323.023 247.01 322.493C247.979 321.963 249.084 321.698 250.325 321.698C251.582 321.698 252.695 321.963 253.663 322.493C254.647 323.023 255.412 323.749 255.957 324.673C256.517 325.596 256.797 326.671 256.797 327.897C256.797 329.093 256.517 330.16 255.957 331.099C255.412 332.037 254.647 332.779 253.663 333.324C252.695 333.854 251.582 334.119 250.325 334.119ZM250.325 331.689C251.022 331.689 251.643 331.538 252.187 331.235C252.732 330.932 253.156 330.493 253.459 329.918C253.777 329.343 253.936 328.669 253.936 327.897C253.936 327.11 253.777 326.436 253.459 325.876C253.156 325.301 252.732 324.862 252.187 324.559C251.643 324.256 251.029 324.105 250.348 324.105C249.652 324.105 249.031 324.256 248.486 324.559C247.956 324.862 247.533 325.301 247.215 325.876C246.897 326.436 246.738 327.11 246.738 327.897C246.738 328.669 246.897 329.343 247.215 329.918C247.533 330.493 247.956 330.932 248.486 331.235C249.031 331.538 249.644 331.689 250.325 331.689ZM265.483 321.698C266.452 321.698 267.315 321.887 268.072 322.266C268.844 322.644 269.449 323.227 269.888 324.014C270.327 324.786 270.547 325.785 270.547 327.012V333.96H267.709V327.375C267.709 326.3 267.451 325.498 266.936 324.968C266.437 324.438 265.733 324.173 264.825 324.173C264.159 324.173 263.568 324.309 263.054 324.582C262.539 324.854 262.138 325.263 261.85 325.808C261.578 326.338 261.441 327.012 261.441 327.829V333.96H258.603V321.834H261.305V325.104L260.828 324.105C261.252 323.333 261.865 322.743 262.668 322.334C263.485 321.91 264.424 321.698 265.483 321.698ZM284.056 334.119C282.815 334.119 281.71 333.854 280.741 333.324C279.772 332.779 279.008 332.037 278.448 331.099C277.887 330.16 277.607 329.093 277.607 327.897C277.607 326.686 277.887 325.619 278.448 324.695C279.008 323.757 279.772 323.023 280.741 322.493C281.71 321.963 282.815 321.698 284.056 321.698C285.313 321.698 286.425 321.963 287.394 322.493C288.378 323.023 289.143 323.749 289.688 324.673C290.248 325.596 290.528 326.671 290.528 327.897C290.528 329.093 290.248 330.16 289.688 331.099C289.143 332.037 288.378 332.779 287.394 333.324C286.425 333.854 285.313 334.119 284.056 334.119ZM284.056 331.689C284.753 331.689 285.373 331.538 285.918 331.235C286.463 330.932 286.887 330.493 287.19 329.918C287.508 329.343 287.667 328.669 287.667 327.897C287.667 327.11 287.508 326.436 287.19 325.876C286.887 325.301 286.463 324.862 285.918 324.559C285.373 324.256 284.76 324.105 284.079 324.105C283.383 324.105 282.762 324.256 282.217 324.559C281.687 324.862 281.263 325.301 280.945 325.876C280.627 326.436 280.469 327.11 280.469 327.897C280.469 328.669 280.627 329.343 280.945 329.918C281.263 330.493 281.687 330.932 282.217 331.235C282.762 331.538 283.375 331.689 284.056 331.689ZM292.334 333.96V321.834H295.036V325.172L294.718 324.196C295.081 323.378 295.649 322.758 296.421 322.334C297.208 321.91 298.185 321.698 299.35 321.698V324.4C299.229 324.37 299.116 324.355 299.01 324.355C298.904 324.34 298.798 324.332 298.692 324.332C297.617 324.332 296.762 324.65 296.126 325.286C295.49 325.906 295.172 326.837 295.172 328.079V333.96H292.334ZM312.027 334.119C310.68 334.119 309.499 333.854 308.485 333.324C307.486 332.779 306.706 332.037 306.146 331.099C305.601 330.16 305.329 329.093 305.329 327.897C305.329 326.686 305.594 325.619 306.124 324.695C306.669 323.757 307.41 323.023 308.349 322.493C309.303 321.963 310.385 321.698 311.596 321.698C312.777 321.698 313.829 321.955 314.752 322.47C315.676 322.985 316.402 323.711 316.932 324.65C317.462 325.589 317.727 326.694 317.727 327.965C317.727 328.086 317.719 328.223 317.704 328.374C317.704 328.525 317.697 328.669 317.682 328.805H307.577V326.921H316.183L315.07 327.511C315.085 326.815 314.942 326.202 314.639 325.672C314.336 325.142 313.92 324.726 313.39 324.423C312.875 324.12 312.277 323.969 311.596 323.969C310.9 323.969 310.287 324.12 309.757 324.423C309.242 324.726 308.833 325.15 308.531 325.695C308.243 326.224 308.099 326.853 308.099 327.579V328.033C308.099 328.76 308.266 329.403 308.599 329.963C308.932 330.524 309.401 330.955 310.006 331.258C310.612 331.561 311.308 331.712 312.096 331.712C312.777 331.712 313.39 331.606 313.935 331.394C314.48 331.182 314.964 330.849 315.388 330.395L316.909 332.143C316.365 332.779 315.676 333.271 314.843 333.619C314.026 333.952 313.087 334.119 312.027 334.119ZM326.683 333.96V331.508L326.524 330.985V326.694C326.524 325.861 326.274 325.218 325.775 324.764C325.275 324.294 324.518 324.06 323.504 324.06C322.823 324.06 322.149 324.166 321.483 324.378C320.832 324.589 320.28 324.885 319.826 325.263L318.713 323.197C319.364 322.697 320.136 322.326 321.029 322.084C321.937 321.827 322.876 321.698 323.845 321.698C325.601 321.698 326.956 322.122 327.909 322.97C328.878 323.802 329.363 325.097 329.363 326.853V333.96H326.683ZM322.868 334.119C321.96 334.119 321.165 333.967 320.484 333.665C319.803 333.347 319.273 332.915 318.895 332.37C318.531 331.81 318.35 331.182 318.35 330.486C318.35 329.805 318.509 329.191 318.826 328.646C319.159 328.101 319.697 327.67 320.439 327.352C321.18 327.034 322.164 326.875 323.391 326.875H326.91V328.76H323.595C322.626 328.76 321.975 328.919 321.642 329.237C321.309 329.54 321.143 329.918 321.143 330.372C321.143 330.887 321.347 331.296 321.756 331.598C322.164 331.901 322.732 332.053 323.459 332.053C324.155 332.053 324.776 331.894 325.321 331.576C325.881 331.258 326.282 330.788 326.524 330.168L327.001 331.871C326.729 332.582 326.237 333.135 325.525 333.528C324.829 333.922 323.943 334.119 322.868 334.119ZM332.097 333.96V321.834H334.799V325.172L334.481 324.196C334.845 323.378 335.412 322.758 336.184 322.334C336.972 321.91 337.948 321.698 339.114 321.698V324.4C338.992 324.37 338.879 324.355 338.773 324.355C338.667 324.34 338.561 324.332 338.455 324.332C337.38 324.332 336.525 324.65 335.889 325.286C335.253 325.906 334.935 326.837 334.935 328.079V333.96H332.097ZM347.493 321.698C348.462 321.698 349.325 321.887 350.082 322.266C350.854 322.644 351.46 323.227 351.899 324.014C352.338 324.786 352.557 325.785 352.557 327.012V333.96H349.719V327.375C349.719 326.3 349.461 325.498 348.947 324.968C348.447 324.438 347.743 324.173 346.835 324.173C346.169 324.173 345.578 324.309 345.064 324.582C344.549 324.854 344.148 325.263 343.86 325.808C343.588 326.338 343.452 327.012 343.452 327.829V333.96H340.613V321.834H343.315V325.104L342.838 324.105C343.262 323.333 343.875 322.743 344.678 322.334C345.495 321.91 346.434 321.698 347.493 321.698ZM375.921 321.698C376.89 321.698 377.745 321.887 378.487 322.266C379.244 322.644 379.835 323.227 380.258 324.014C380.682 324.786 380.894 325.785 380.894 327.012V333.96H378.056V327.375C378.056 326.3 377.821 325.498 377.352 324.968C376.883 324.438 376.209 324.173 375.331 324.173C374.71 324.173 374.158 324.309 373.673 324.582C373.204 324.854 372.833 325.256 372.561 325.785C372.303 326.315 372.175 326.989 372.175 327.806V333.96H369.336V327.375C369.336 326.3 369.102 325.498 368.632 324.968C368.163 324.438 367.489 324.173 366.611 324.173C365.991 324.173 365.438 324.309 364.954 324.582C364.485 324.854 364.114 325.256 363.841 325.785C363.584 326.315 363.455 326.989 363.455 327.806V333.96H360.617V321.834H363.319V325.059L362.842 324.105C363.251 323.318 363.841 322.72 364.613 322.311C365.4 321.902 366.294 321.698 367.293 321.698C368.428 321.698 369.412 321.978 370.245 322.538C371.092 323.098 371.652 323.946 371.925 325.081L370.812 324.695C371.206 323.787 371.857 323.06 372.765 322.516C373.673 321.971 374.725 321.698 375.921 321.698ZM389.085 334.119C387.844 334.119 386.739 333.854 385.77 333.324C384.801 332.779 384.036 332.037 383.476 331.099C382.916 330.16 382.636 329.093 382.636 327.897C382.636 326.686 382.916 325.619 383.476 324.695C384.036 323.757 384.801 323.023 385.77 322.493C386.739 321.963 387.844 321.698 389.085 321.698C390.341 321.698 391.454 321.963 392.423 322.493C393.407 323.023 394.171 323.749 394.716 324.673C395.276 325.596 395.556 326.671 395.556 327.897C395.556 329.093 395.276 330.16 394.716 331.099C394.171 332.037 393.407 332.779 392.423 333.324C391.454 333.854 390.341 334.119 389.085 334.119ZM389.085 331.689C389.781 331.689 390.402 331.538 390.947 331.235C391.492 330.932 391.916 330.493 392.219 329.918C392.536 329.343 392.695 328.669 392.695 327.897C392.695 327.11 392.536 326.436 392.219 325.876C391.916 325.301 391.492 324.862 390.947 324.559C390.402 324.256 389.789 324.105 389.108 324.105C388.411 324.105 387.791 324.256 387.246 324.559C386.716 324.862 386.292 325.301 385.974 325.876C385.656 326.436 385.497 327.11 385.497 327.897C385.497 328.669 385.656 329.343 385.974 329.918C386.292 330.493 386.716 330.932 387.246 331.235C387.791 331.538 388.404 331.689 389.085 331.689ZM404.243 321.698C405.212 321.698 406.074 321.887 406.831 322.266C407.603 322.644 408.209 323.227 408.648 324.014C409.087 324.786 409.306 325.785 409.306 327.012V333.96H406.468V327.375C406.468 326.3 406.211 325.498 405.696 324.968C405.196 324.438 404.492 324.173 403.584 324.173C402.918 324.173 402.328 324.309 401.813 324.582C401.298 324.854 400.897 325.263 400.61 325.808C400.337 326.338 400.201 327.012 400.201 327.829V333.96H397.362V321.834H400.065V325.104L399.588 324.105C400.012 323.333 400.625 322.743 401.427 322.334C402.244 321.91 403.183 321.698 404.243 321.698ZM417.72 334.119C416.373 334.119 415.192 333.854 414.178 333.324C413.179 332.779 412.399 332.037 411.839 331.099C411.294 330.16 411.022 329.093 411.022 327.897C411.022 326.686 411.287 325.619 411.817 324.695C412.362 323.757 413.103 323.023 414.042 322.493C414.996 321.963 416.078 321.698 417.289 321.698C418.47 321.698 419.522 321.955 420.445 322.47C421.369 322.985 422.095 323.711 422.625 324.65C423.155 325.589 423.42 326.694 423.42 327.965C423.42 328.086 423.412 328.223 423.397 328.374C423.397 328.525 423.39 328.669 423.375 328.805H413.27V326.921H421.876L420.763 327.511C420.778 326.815 420.635 326.202 420.332 325.672C420.029 325.142 419.613 324.726 419.083 324.423C418.568 324.12 417.97 323.969 417.289 323.969C416.593 323.969 415.98 324.12 415.45 324.423C414.935 324.726 414.526 325.15 414.224 325.695C413.936 326.224 413.792 326.853 413.792 327.579V328.033C413.792 328.76 413.959 329.403 414.292 329.963C414.625 330.524 415.094 330.955 415.7 331.258C416.305 331.561 417.001 331.712 417.789 331.712C418.47 331.712 419.083 331.606 419.628 331.394C420.173 331.182 420.657 330.849 421.081 330.395L422.602 332.143C422.058 332.779 421.369 333.271 420.536 333.619C419.719 333.952 418.78 334.119 417.72 334.119ZM426.015 338.524C425.425 338.524 424.835 338.426 424.244 338.229C423.654 338.032 423.162 337.76 422.768 337.411L423.904 335.322C424.191 335.58 424.517 335.784 424.88 335.935C425.243 336.087 425.614 336.163 425.993 336.163C426.507 336.163 426.924 336.034 427.242 335.777C427.56 335.519 427.855 335.088 428.127 334.482L428.831 332.893L429.058 332.552L433.645 321.834H436.37L430.693 334.936C430.315 335.845 429.891 336.564 429.422 337.094C428.967 337.623 428.453 337.994 427.877 338.206C427.317 338.418 426.697 338.524 426.015 338.524ZM428.513 334.391L423.041 321.834H425.993L430.443 332.302L428.513 334.391ZM4.54143 365.96L0.0908287 353.834H2.77028L6.58508 364.529H5.31348L9.30994 353.834H11.6942L15.5771 364.529H14.3282L18.2566 353.834H20.7771L16.3038 365.96H13.5789L10.0366 356.491H10.8767L7.2663 365.96H4.54143ZM28.7006 353.698C29.6695 353.698 30.5323 353.887 31.2892 354.266C32.0613 354.644 32.6668 355.227 33.1058 356.014C33.5448 356.786 33.7643 357.785 33.7643 359.012V365.96H30.9259V359.375C30.9259 358.3 30.6686 357.498 30.1539 356.968C29.6543 356.438 28.9504 356.173 28.0421 356.173C27.376 356.173 26.7857 356.309 26.271 356.582C25.7563 356.854 25.3551 357.263 25.0675 357.808C24.795 358.338 24.6587 359.012 24.6587 359.829V365.96H21.8204V349.111H24.6587V357.104L24.0457 356.105C24.4695 355.333 25.0826 354.743 25.8849 354.334C26.7024 353.91 27.641 353.698 28.7006 353.698ZM36.4567 365.96V353.834H39.2951V365.96H36.4567ZM37.8873 351.836C37.3574 351.836 36.9184 351.67 36.5703 351.337C36.2372 351.003 36.0707 350.602 36.0707 350.133C36.0707 349.649 36.2372 349.247 36.5703 348.93C36.9184 348.597 37.3574 348.43 37.8873 348.43C38.4171 348.43 38.8485 348.589 39.1816 348.907C39.5298 349.21 39.7038 349.596 39.7038 350.065C39.7038 350.564 39.5373 350.988 39.2043 351.337C38.8713 351.67 38.4322 351.836 37.8873 351.836ZM42.1122 365.96V349.111H44.9506V365.96H42.1122ZM53.4672 366.119C52.1199 366.119 50.9392 365.854 49.9249 365.324C48.9258 364.779 48.1462 364.037 47.5861 363.099C47.0411 362.16 46.7686 361.093 46.7686 359.897C46.7686 358.686 47.0335 357.619 47.5634 356.695C48.1083 355.757 48.8501 355.023 49.7887 354.493C50.7424 353.963 51.8248 353.698 53.0358 353.698C54.2166 353.698 55.2687 353.955 56.1921 354.47C57.1155 354.985 57.8422 355.711 58.372 356.65C58.9018 357.589 59.1667 358.694 59.1667 359.965C59.1667 360.086 59.1592 360.223 59.144 360.374C59.144 360.525 59.1365 360.669 59.1213 360.805H49.0166V358.921H57.6226L56.51 359.511C56.5251 358.815 56.3813 358.202 56.0786 357.672C55.7758 357.142 55.3595 356.726 54.8297 356.423C54.315 356.12 53.717 355.969 53.0358 355.969C52.3394 355.969 51.7264 356.12 51.1965 356.423C50.6818 356.726 50.2731 357.15 49.9703 357.695C49.6827 358.224 49.5389 358.853 49.5389 359.579V360.033C49.5389 360.76 49.7054 361.403 50.0385 361.963C50.3715 362.524 50.8408 362.955 51.4463 363.258C52.0518 363.561 52.7482 363.712 53.5354 363.712C54.2166 363.712 54.8297 363.606 55.3746 363.394C55.9196 363.182 56.404 362.849 56.8279 362.395L58.3493 364.143C57.8043 364.779 57.1155 365.271 56.2829 365.619C55.4655 365.952 54.5269 366.119 53.4672 366.119ZM70.9163 366.119C69.5841 366.119 68.5547 365.778 67.8281 365.097C67.1015 364.401 66.7382 363.379 66.7382 362.032V351.155H69.5766V361.963C69.5766 362.539 69.7204 362.985 70.008 363.303C70.3108 363.621 70.7271 363.78 71.2569 363.78C71.8927 363.78 72.4225 363.614 72.8464 363.28L73.6411 365.301C73.3081 365.574 72.8994 365.778 72.415 365.915C71.9305 366.051 71.431 366.119 70.9163 366.119ZM64.7399 356.196V353.925H72.8237V356.196H64.7399ZM80.3681 366.119C79.0208 366.119 77.8401 365.854 76.8258 365.324C75.8267 364.779 75.0471 364.037 74.487 363.099C73.942 362.16 73.6695 361.093 73.6695 359.897C73.6695 358.686 73.9344 357.619 74.4643 356.695C75.0092 355.757 75.751 355.023 76.6896 354.493C77.6433 353.963 78.7257 353.698 79.9367 353.698C81.1175 353.698 82.1696 353.955 83.093 354.47C84.0164 354.985 84.7431 355.711 85.2729 356.65C85.8027 357.589 86.0676 358.694 86.0676 359.965C86.0676 360.086 86.0601 360.223 86.0449 360.374C86.0449 360.525 86.0374 360.669 86.0222 360.805H75.9175V358.921H84.5236L83.4109 359.511C83.426 358.815 83.2822 358.202 82.9795 357.672C82.6767 357.142 82.2604 356.726 81.7306 356.423C81.2159 356.12 80.6179 355.969 79.9367 355.969C79.2403 355.969 78.6273 356.12 78.0974 356.423C77.5827 356.726 77.174 357.15 76.8712 357.695C76.5836 358.224 76.4398 358.853 76.4398 359.579V360.033C76.4398 360.76 76.6063 361.403 76.9394 361.963C77.2724 362.524 77.7417 362.955 78.3472 363.258C78.9527 363.561 79.6491 363.712 80.4363 363.712C81.1175 363.712 81.7306 363.606 82.2755 363.394C82.8205 363.182 83.3049 362.849 83.7288 362.395L85.2502 364.143C84.7052 364.779 84.0164 365.271 83.1838 365.619C82.3664 365.952 81.4278 366.119 80.3681 366.119ZM95.0238 365.96V363.508L94.8649 362.985V358.694C94.8649 357.861 94.6151 357.218 94.1156 356.764C93.616 356.294 92.8591 356.06 91.8448 356.06C91.1636 356.06 90.49 356.166 89.8239 356.378C89.173 356.589 88.6204 356.885 88.1663 357.263L87.0536 355.197C87.7046 354.697 88.4766 354.326 89.3698 354.084C90.278 353.827 91.2166 353.698 92.1855 353.698C93.9415 353.698 95.2963 354.122 96.25 354.97C97.2189 355.802 97.7033 357.097 97.7033 358.853V365.96H95.0238ZM91.209 366.119C90.3008 366.119 89.506 365.967 88.8248 365.665C88.1436 365.347 87.6137 364.915 87.2353 364.37C86.872 363.81 86.6903 363.182 86.6903 362.486C86.6903 361.805 86.8493 361.191 87.1672 360.646C87.5002 360.101 88.0376 359.67 88.7794 359.352C89.5211 359.034 90.5051 358.875 91.7313 358.875H95.2509V360.76H91.9357C90.9668 360.76 90.3159 360.919 89.9829 361.237C89.6498 361.54 89.4833 361.918 89.4833 362.372C89.4833 362.887 89.6877 363.296 90.0964 363.598C90.5051 363.901 91.0728 364.053 91.7994 364.053C92.4958 364.053 93.1164 363.894 93.6614 363.576C94.2215 363.258 94.6227 362.788 94.8649 362.168L95.3417 363.871C95.0693 364.582 94.5773 365.135 93.8658 365.528C93.1694 365.922 92.2839 366.119 91.209 366.119ZM106.023 366.119C104.752 366.119 103.616 365.854 102.617 365.324C101.633 364.779 100.861 364.037 100.301 363.099C99.7409 362.16 99.4608 361.093 99.4608 359.897C99.4608 358.686 99.7409 357.619 100.301 356.695C100.861 355.757 101.633 355.023 102.617 354.493C103.616 353.963 104.752 353.698 106.023 353.698C107.204 353.698 108.241 353.94 109.134 354.425C110.042 354.894 110.731 355.59 111.2 356.514L109.021 357.785C108.657 357.21 108.211 356.786 107.681 356.514C107.166 356.241 106.606 356.105 106 356.105C105.304 356.105 104.676 356.256 104.116 356.559C103.556 356.862 103.117 357.301 102.799 357.876C102.481 358.436 102.322 359.11 102.322 359.897C102.322 360.684 102.481 361.366 102.799 361.941C103.117 362.501 103.556 362.932 104.116 363.235C104.676 363.538 105.304 363.689 106 363.689C106.606 363.689 107.166 363.553 107.681 363.28C108.211 363.008 108.657 362.584 109.021 362.009L111.2 363.28C110.731 364.189 110.042 364.893 109.134 365.392C108.241 365.877 107.204 366.119 106.023 366.119ZM119.515 353.698C120.484 353.698 121.347 353.887 122.104 354.266C122.876 354.644 123.481 355.227 123.92 356.014C124.359 356.786 124.579 357.785 124.579 359.012V365.96H121.74V359.375C121.74 358.3 121.483 357.498 120.968 356.968C120.469 356.438 119.765 356.173 118.857 356.173C118.191 356.173 117.6 356.309 117.085 356.582C116.571 356.854 116.17 357.263 115.882 357.808C115.61 358.338 115.473 359.012 115.473 359.829V365.96H112.635V349.111H115.473V357.104L114.86 356.105C115.284 355.333 115.897 354.743 116.699 354.334C117.517 353.91 118.455 353.698 119.515 353.698ZM127.271 365.96V353.834H130.11V365.96H127.271ZM128.702 351.836C128.172 351.836 127.733 351.67 127.385 351.337C127.052 351.003 126.885 350.602 126.885 350.133C126.885 349.649 127.052 349.247 127.385 348.93C127.733 348.597 128.172 348.43 128.702 348.43C129.232 348.43 129.663 348.589 129.996 348.907C130.344 349.21 130.518 349.596 130.518 350.065C130.518 350.564 130.352 350.988 130.019 351.337C129.686 351.67 129.247 351.836 128.702 351.836ZM139.807 353.698C140.776 353.698 141.639 353.887 142.396 354.266C143.168 354.644 143.773 355.227 144.212 356.014C144.651 356.786 144.871 357.785 144.871 359.012V365.96H142.032V359.375C142.032 358.3 141.775 357.498 141.26 356.968C140.761 356.438 140.057 356.173 139.148 356.173C138.482 356.173 137.892 356.309 137.377 356.582C136.863 356.854 136.461 357.263 136.174 357.808C135.901 358.338 135.765 359.012 135.765 359.829V365.96H132.927V353.834H135.629V357.104L135.152 356.105C135.576 355.333 136.189 354.743 136.991 354.334C137.809 353.91 138.747 353.698 139.807 353.698ZM153.08 370.524C151.96 370.524 150.863 370.373 149.788 370.07C148.728 369.782 147.858 369.358 147.177 368.798L148.448 366.664C148.978 367.103 149.644 367.451 150.446 367.708C151.264 367.981 152.089 368.117 152.921 368.117C154.254 368.117 155.23 367.807 155.851 367.186C156.471 366.581 156.782 365.665 156.782 364.439V362.281L157.009 359.534L156.918 356.786V353.834H159.62V364.121C159.62 366.316 159.06 367.928 157.94 368.957C156.82 370.002 155.2 370.524 153.08 370.524ZM152.717 365.415C151.567 365.415 150.522 365.173 149.584 364.688C148.66 364.189 147.926 363.5 147.381 362.622C146.851 361.744 146.586 360.715 146.586 359.534C146.586 358.368 146.851 357.346 147.381 356.468C147.926 355.59 148.66 354.909 149.584 354.425C150.522 353.94 151.567 353.698 152.717 353.698C153.746 353.698 154.67 353.902 155.487 354.311C156.305 354.72 156.956 355.356 157.44 356.219C157.94 357.081 158.19 358.187 158.19 359.534C158.19 360.881 157.94 361.994 157.44 362.872C156.956 363.735 156.305 364.378 155.487 364.802C154.67 365.211 153.746 365.415 152.717 365.415ZM153.149 363.008C153.86 363.008 154.496 362.864 155.056 362.577C155.616 362.274 156.047 361.865 156.35 361.35C156.668 360.821 156.827 360.215 156.827 359.534C156.827 358.853 156.668 358.255 156.35 357.74C156.047 357.21 155.616 356.809 155.056 356.536C154.496 356.249 153.86 356.105 153.149 356.105C152.437 356.105 151.794 356.249 151.218 356.536C150.658 356.809 150.219 357.21 149.901 357.74C149.599 358.255 149.447 358.853 149.447 359.534C149.447 360.215 149.599 360.821 149.901 361.35C150.219 361.865 150.658 362.274 151.218 362.577C151.794 362.864 152.437 363.008 153.149 363.008ZM173.26 366.119C172.019 366.119 170.914 365.854 169.945 365.324C168.976 364.779 168.212 364.037 167.652 363.099C167.092 362.16 166.812 361.093 166.812 359.897C166.812 358.686 167.092 357.619 167.652 356.695C168.212 355.757 168.976 355.023 169.945 354.493C170.914 353.963 172.019 353.698 173.26 353.698C174.517 353.698 175.629 353.963 176.598 354.493C177.582 355.023 178.347 355.749 178.892 356.673C179.452 357.596 179.732 358.671 179.732 359.897C179.732 361.093 179.452 362.16 178.892 363.099C178.347 364.037 177.582 364.779 176.598 365.324C175.629 365.854 174.517 366.119 173.26 366.119ZM173.26 363.689C173.957 363.689 174.577 363.538 175.122 363.235C175.667 362.932 176.091 362.493 176.394 361.918C176.712 361.343 176.871 360.669 176.871 359.897C176.871 359.11 176.712 358.436 176.394 357.876C176.091 357.301 175.667 356.862 175.122 356.559C174.577 356.256 173.964 356.105 173.283 356.105C172.587 356.105 171.966 356.256 171.421 356.559C170.891 356.862 170.467 357.301 170.149 357.876C169.832 358.436 169.673 359.11 169.673 359.897C169.673 360.669 169.832 361.343 170.149 361.918C170.467 362.493 170.891 362.932 171.421 363.235C171.966 363.538 172.579 363.689 173.26 363.689ZM188.418 353.698C189.387 353.698 190.25 353.887 191.007 354.266C191.779 354.644 192.384 355.227 192.823 356.014C193.262 356.786 193.482 357.785 193.482 359.012V365.96H190.643V359.375C190.643 358.3 190.386 357.498 189.871 356.968C189.372 356.438 188.668 356.173 187.76 356.173C187.094 356.173 186.503 356.309 185.988 356.582C185.474 356.854 185.073 357.263 184.785 357.808C184.512 358.338 184.376 359.012 184.376 359.829V365.96H181.538V353.834H184.24V357.104L183.763 356.105C184.187 355.333 184.8 354.743 185.602 354.334C186.42 353.91 187.358 353.698 188.418 353.698ZM196.174 365.96V349.111H199.013V365.96H196.174ZM201.83 365.96V353.834H204.668V365.96H201.83ZM203.26 351.836C202.73 351.836 202.291 351.67 201.943 351.337C201.61 351.003 201.444 350.602 201.444 350.133C201.444 349.649 201.61 349.247 201.943 348.93C202.291 348.597 202.73 348.43 203.26 348.43C203.79 348.43 204.222 348.589 204.555 348.907C204.903 349.21 205.077 349.596 205.077 350.065C205.077 350.564 204.91 350.988 204.577 351.337C204.244 351.67 203.805 351.836 203.26 351.836ZM214.365 353.698C215.334 353.698 216.197 353.887 216.954 354.266C217.726 354.644 218.332 355.227 218.771 356.014C219.21 356.786 219.429 357.785 219.429 359.012V365.96H216.591V359.375C216.591 358.3 216.333 357.498 215.819 356.968C215.319 356.438 214.615 356.173 213.707 356.173C213.041 356.173 212.451 356.309 211.936 356.582C211.421 356.854 211.02 357.263 210.732 357.808C210.46 358.338 210.324 359.012 210.324 359.829V365.96H207.485V353.834H210.187V357.104L209.711 356.105C210.134 355.333 210.747 354.743 211.55 354.334C212.367 353.91 213.306 353.698 214.365 353.698ZM227.843 366.119C226.496 366.119 225.315 365.854 224.301 365.324C223.302 364.779 222.522 364.037 221.962 363.099C221.417 362.16 221.145 361.093 221.145 359.897C221.145 358.686 221.41 357.619 221.939 356.695C222.484 355.757 223.226 355.023 224.165 354.493C225.118 353.963 226.201 353.698 227.412 353.698C228.593 353.698 229.645 353.955 230.568 354.47C231.492 354.985 232.218 355.711 232.748 356.65C233.278 357.589 233.543 358.694 233.543 359.965C233.543 360.086 233.535 360.223 233.52 360.374C233.52 360.525 233.512 360.669 233.497 360.805H223.393V358.921H231.999L230.886 359.511C230.901 358.815 230.757 358.202 230.455 357.672C230.152 357.142 229.736 356.726 229.206 356.423C228.691 356.12 228.093 355.969 227.412 355.969C226.715 355.969 226.102 356.12 225.573 356.423C225.058 356.726 224.649 357.15 224.346 357.695C224.059 358.224 223.915 358.853 223.915 359.579V360.033C223.915 360.76 224.081 361.403 224.414 361.963C224.748 362.524 225.217 362.955 225.822 363.258C226.428 363.561 227.124 363.712 227.911 363.712C228.593 363.712 229.206 363.606 229.751 363.394C230.296 363.182 230.78 362.849 231.204 362.395L232.725 364.143C232.18 364.779 231.492 365.271 230.659 365.619C229.841 365.952 228.903 366.119 227.843 366.119ZM243.408 365.96L238.957 353.834H241.636L245.451 364.529H244.18L248.176 353.834H250.56L254.443 364.529H253.194L257.123 353.834H259.643L255.17 365.96H252.445L248.903 356.491H249.743L246.132 365.96H243.408ZM260.687 365.96V353.834H263.525V365.96H260.687ZM262.117 351.836C261.587 351.836 261.148 351.67 260.8 351.337C260.467 351.003 260.3 350.602 260.3 350.133C260.3 349.649 260.467 349.247 260.8 348.93C261.148 348.597 261.587 348.43 262.117 348.43C262.647 348.43 263.078 348.589 263.411 348.907C263.76 349.21 263.934 349.596 263.934 350.065C263.934 350.564 263.767 350.988 263.434 351.337C263.101 351.67 262.662 351.836 262.117 351.836ZM270.906 366.119C269.574 366.119 268.545 365.778 267.818 365.097C267.091 364.401 266.728 363.379 266.728 362.032V351.155H269.566V361.963C269.566 362.539 269.71 362.985 269.998 363.303C270.301 363.621 270.717 363.78 271.247 363.78C271.883 363.78 272.412 363.614 272.836 363.28L273.631 365.301C273.298 365.574 272.889 365.778 272.405 365.915C271.92 366.051 271.421 366.119 270.906 366.119ZM264.73 356.196V353.925H272.814V356.196H264.73ZM281.938 353.698C282.907 353.698 283.77 353.887 284.527 354.266C285.299 354.644 285.904 355.227 286.343 356.014C286.782 356.786 287.002 357.785 287.002 359.012V365.96H284.163V359.375C284.163 358.3 283.906 357.498 283.391 356.968C282.892 356.438 282.188 356.173 281.279 356.173C280.613 356.173 280.023 356.309 279.508 356.582C278.994 356.854 278.592 357.263 278.305 357.808C278.032 358.338 277.896 359.012 277.896 359.829V365.96H275.058V349.111H277.896V357.104L277.283 356.105C277.707 355.333 278.32 354.743 279.122 354.334C279.94 353.91 280.878 353.698 281.938 353.698ZM302.759 366.187C301.518 366.187 300.375 365.99 299.33 365.597C298.301 365.188 297.4 364.62 296.628 363.894C295.856 363.152 295.258 362.281 294.834 361.282C294.41 360.283 294.198 359.193 294.198 358.012C294.198 356.832 294.41 355.742 294.834 354.743C295.258 353.743 295.856 352.881 296.628 352.154C297.415 351.412 298.331 350.845 299.376 350.451C300.42 350.042 301.563 349.838 302.804 349.838C304.152 349.838 305.363 350.057 306.438 350.496C307.528 350.935 308.443 351.579 309.185 352.426L307.323 354.243C306.702 353.622 306.029 353.168 305.302 352.881C304.591 352.578 303.804 352.426 302.941 352.426C302.108 352.426 301.336 352.563 300.625 352.835C299.913 353.108 299.3 353.494 298.785 353.993C298.271 354.493 297.869 355.083 297.582 355.764C297.309 356.446 297.173 357.195 297.173 358.012C297.173 358.815 297.309 359.557 297.582 360.238C297.869 360.919 298.271 361.517 298.785 362.032C299.3 362.531 299.905 362.917 300.602 363.19C301.298 363.462 302.07 363.598 302.918 363.598C303.705 363.598 304.462 363.477 305.189 363.235C305.93 362.978 306.634 362.554 307.3 361.963L308.981 364.166C308.148 364.832 307.179 365.339 306.074 365.687C304.984 366.02 303.879 366.187 302.759 366.187ZM306.188 363.78V357.831H308.981V364.166L306.188 363.78ZM311.693 365.96V349.111H314.532V365.96H311.693ZM322.799 366.119C321.557 366.119 320.452 365.854 319.483 365.324C318.515 364.779 317.75 364.037 317.19 363.099C316.63 362.16 316.35 361.093 316.35 359.897C316.35 358.686 316.63 357.619 317.19 356.695C317.75 355.757 318.515 355.023 319.483 354.493C320.452 353.963 321.557 353.698 322.799 353.698C324.055 353.698 325.168 353.963 326.137 354.493C327.121 355.023 327.885 355.749 328.43 356.673C328.99 357.596 329.27 358.671 329.27 359.897C329.27 361.093 328.99 362.16 328.43 363.099C327.885 364.037 327.121 364.779 326.137 365.324C325.168 365.854 324.055 366.119 322.799 366.119ZM322.799 363.689C323.495 363.689 324.116 363.538 324.661 363.235C325.206 362.932 325.629 362.493 325.932 361.918C326.25 361.343 326.409 360.669 326.409 359.897C326.409 359.11 326.25 358.436 325.932 357.876C325.629 357.301 325.206 356.862 324.661 356.559C324.116 356.256 323.503 356.105 322.821 356.105C322.125 356.105 321.504 356.256 320.959 356.559C320.43 356.862 320.006 357.301 319.688 357.876C319.37 358.436 319.211 359.11 319.211 359.897C319.211 360.669 319.37 361.343 319.688 361.918C320.006 362.493 320.43 362.932 320.959 363.235C321.504 363.538 322.117 363.689 322.799 363.689ZM337.797 366.119C336.768 366.119 335.852 365.892 335.05 365.438C334.248 364.984 333.612 364.302 333.142 363.394C332.688 362.471 332.461 361.305 332.461 359.897C332.461 358.474 332.696 357.308 333.165 356.4C333.65 355.492 334.293 354.818 335.095 354.379C335.913 353.925 336.813 353.698 337.797 353.698C338.993 353.698 340.045 353.955 340.954 354.47C341.877 354.985 342.604 355.704 343.134 356.627C343.679 357.551 343.951 358.641 343.951 359.897C343.951 361.154 343.679 362.244 343.134 363.167C342.604 364.09 341.877 364.817 340.954 365.347C340.045 365.862 338.993 366.119 337.797 366.119ZM331.076 365.96V349.111H333.914V356.65L333.687 359.874L333.778 363.099V365.96H331.076ZM337.48 363.689C338.161 363.689 338.766 363.538 339.296 363.235C339.841 362.932 340.273 362.493 340.59 361.918C340.908 361.343 341.067 360.669 341.067 359.897C341.067 359.11 340.908 358.436 340.59 357.876C340.273 357.301 339.841 356.862 339.296 356.559C338.766 356.256 338.161 356.105 337.48 356.105C336.798 356.105 336.185 356.256 335.64 356.559C335.095 356.862 334.664 357.301 334.346 357.876C334.028 358.436 333.869 359.11 333.869 359.897C333.869 360.669 334.028 361.343 334.346 361.918C334.664 362.493 335.095 362.932 335.64 363.235C336.185 363.538 336.798 363.689 337.48 363.689ZM353.05 365.96V363.508L352.891 362.985V358.694C352.891 357.861 352.641 357.218 352.142 356.764C351.642 356.294 350.885 356.06 349.871 356.06C349.19 356.06 348.516 356.166 347.85 356.378C347.199 356.589 346.647 356.885 346.193 357.263L345.08 355.197C345.731 354.697 346.503 354.326 347.396 354.084C348.304 353.827 349.243 353.698 350.212 353.698C351.968 353.698 353.323 354.122 354.276 354.97C355.245 355.802 355.73 357.097 355.73 358.853V365.96H353.05ZM349.235 366.119C348.327 366.119 347.532 365.967 346.851 365.665C346.17 365.347 345.64 364.915 345.262 364.37C344.898 363.81 344.717 363.182 344.717 362.486C344.717 361.805 344.876 361.191 345.193 360.646C345.526 360.101 346.064 359.67 346.806 359.352C347.547 359.034 348.531 358.875 349.758 358.875H353.277V360.76H349.962C348.993 360.76 348.342 360.919 348.009 361.237C347.676 361.54 347.51 361.918 347.51 362.372C347.51 362.887 347.714 363.296 348.123 363.598C348.531 363.901 349.099 364.053 349.826 364.053C350.522 364.053 351.143 363.894 351.688 363.576C352.248 363.258 352.649 362.788 352.891 362.168L353.368 363.871C353.096 364.582 352.604 365.135 351.892 365.528C351.196 365.922 350.31 366.119 349.235 366.119ZM358.464 365.96V349.111H361.302V365.96H358.464ZM367.616 365.96V352.563H362.348V350.065H375.836V352.563H370.568V365.96H367.616ZM383.699 365.96V363.508L383.54 362.985V358.694C383.54 357.861 383.29 357.218 382.79 356.764C382.291 356.294 381.534 356.06 380.52 356.06C379.838 356.06 379.165 356.166 378.499 356.378C377.848 356.589 377.295 356.885 376.841 357.263L375.728 355.197C376.379 354.697 377.151 354.326 378.044 354.084C378.953 353.827 379.891 353.698 380.86 353.698C382.616 353.698 383.971 354.122 384.925 354.97C385.894 355.802 386.378 357.097 386.378 358.853V365.96H383.699ZM379.884 366.119C378.975 366.119 378.181 365.967 377.499 365.665C376.818 365.347 376.288 364.915 375.91 364.37C375.547 363.81 375.365 363.182 375.365 362.486C375.365 361.805 375.524 361.191 375.842 360.646C376.175 360.101 376.712 359.67 377.454 359.352C378.196 359.034 379.18 358.875 380.406 358.875H383.926V360.76H380.61C379.642 360.76 378.991 360.919 378.658 361.237C378.325 361.54 378.158 361.918 378.158 362.372C378.158 362.887 378.362 363.296 378.771 363.598C379.18 363.901 379.748 364.053 380.474 364.053C381.17 364.053 381.791 363.894 382.336 363.576C382.896 363.258 383.297 362.788 383.54 362.168L384.016 363.871C383.744 364.582 383.252 365.135 382.54 365.528C381.844 365.922 380.959 366.119 379.884 366.119ZM389.112 365.96V349.111H391.951V365.96H389.112ZM397.084 363.258L397.152 359.693L403.488 353.834H406.894L401.512 359.239L400.013 360.488L397.084 363.258ZM394.768 365.96V349.111H397.606V365.96H394.768ZM403.919 365.96L399.491 360.488L401.285 358.217L407.37 365.96H403.919ZM409.426 366.119C408.911 366.119 408.472 365.945 408.109 365.597C407.745 365.233 407.564 364.779 407.564 364.234C407.564 363.659 407.745 363.205 408.109 362.872C408.472 362.524 408.911 362.349 409.426 362.349C409.94 362.349 410.379 362.524 410.743 362.872C411.106 363.205 411.288 363.659 411.288 364.234C411.288 364.779 411.106 365.233 410.743 365.597C410.379 365.945 409.94 366.119 409.426 366.119Z" fill="#585858"/>
</svg>
