<svg width="514" height="70" viewBox="0 0 514 70" fill="none" xmlns="http://www.w3.org/2000/svg">
<path d="M28.2555 1.89696C28.2127 1.80117 28.1429 1.71991 28.0548 1.66307C27.9666 1.60624 27.8637 1.57628 27.7588 1.57685H12.3826C12.2902 1.57701 12.1994 1.60033 12.1184 1.64468C12.0374 1.68904 11.9688 1.75301 11.919 1.83073L0.0970537 20.5957C0.0401394 20.6774 0.00688668 20.7732 0.000959267 20.8726C-0.00496814 20.972 0.0166598 21.0711 0.0634604 21.159C0.110261 21.2469 0.180417 21.3202 0.266199 21.3708C0.35198 21.4213 0.450056 21.4472 0.54962 21.4456H9.01593L1.54306 36.0713C1.50016 36.1582 1.47999 36.2547 1.48445 36.3516C1.4889 36.4484 1.51783 36.5426 1.56854 36.6253C1.61924 36.708 1.69007 36.7764 1.77441 36.8243C1.85874 36.8722 1.95384 36.8979 2.05082 36.8991H5.36228C5.43889 36.8996 5.51476 36.8842 5.58507 36.8538C5.65539 36.8234 5.7186 36.7787 5.77069 36.7225L25.1648 15.761C25.2418 15.6825 25.2936 15.5828 25.3136 15.4747C25.3336 15.3666 25.3208 15.255 25.2769 15.1541C25.233 15.0533 25.1601 14.9679 25.0673 14.9089C24.9746 14.8498 24.8663 14.8198 24.7564 14.8227H17.3167L28.1672 2.48198C28.2372 2.40359 28.2828 2.30651 28.2985 2.20262C28.3141 2.09872 28.2992 1.99251 28.2555 1.89696Z" fill="#2B788B"/>
<path d="M39.6581 1.46484H75.0091V7.76357C68.629 17.4314 63.6975 27.1643 60.2144 36.9623H47.031C50.5792 28.1409 55.2503 19.3682 61.0445 10.6444C52.0277 10.6444 44.8989 10.8071 39.6581 11.1327V1.46484Z" fill="black"/>
<path d="M93.2107 37.4506C86.2121 37.4506 81.0526 35.8393 77.7324 32.6167C74.4121 29.3941 72.752 24.9182 72.752 19.1892C72.752 13.4926 74.4121 9.04936 77.7324 5.8593C81.0852 2.63669 86.2446 1.02539 93.2107 1.02539C100.177 1.02539 105.32 2.63669 108.64 5.8593C111.96 9.04936 113.621 13.4926 113.621 19.1892C113.621 24.9182 111.96 29.3941 108.64 32.6167C105.32 35.8393 100.177 37.4506 93.2107 37.4506ZM93.2595 28.9058C96.2542 28.9058 98.4352 27.9944 99.8024 26.1715C101.17 24.316 101.853 21.9886 101.853 19.1892C101.853 16.4223 101.17 14.1274 99.8024 12.3045C98.4352 10.4491 96.2542 9.52135 93.2595 9.52135C90.1671 9.52135 87.921 10.4491 86.5213 12.3045C85.1541 14.1274 84.4706 16.4223 84.4706 19.1892C84.4706 21.9561 85.1541 24.2672 86.5213 26.1227C87.921 27.9781 90.1671 28.9058 93.2595 28.9058Z" fill="black"/>
<path d="M136.032 37.4506C129.033 37.4506 123.874 35.8393 120.554 32.6167C117.233 29.3941 115.573 24.9182 115.573 19.1892C115.573 13.4926 117.233 9.04936 120.554 5.8593C123.906 2.63669 129.066 1.02539 136.032 1.02539C142.998 1.02539 148.141 2.63669 151.461 5.8593C154.782 9.04936 156.442 13.4926 156.442 19.1892C156.442 24.9182 154.782 29.3941 151.461 32.6167C148.141 35.8393 142.998 37.4506 136.032 37.4506ZM136.081 28.9058C139.075 28.9058 141.256 27.9944 142.624 26.1715C143.991 24.316 144.674 21.9886 144.674 19.1892C144.674 16.4223 143.991 14.1274 142.624 12.3045C141.256 10.4491 139.075 9.52135 136.081 9.52135C132.988 9.52135 130.742 10.4491 129.343 12.3045C127.975 14.1274 127.292 16.4223 127.292 19.1892C127.292 21.9561 127.975 24.2672 129.343 26.1227C130.742 27.9781 132.988 28.9058 136.081 28.9058Z" fill="black"/>
<path d="M175.191 15.5759H183.882V25.0973H175.191V33.8374H165.67V25.0973H156.93V15.5759H165.67V6.83585H175.191V15.5759Z" fill="black"/>
<path d="M23.0843 47.3809H25.6672V61.289H23.0843V47.3809ZM15.8918 61.289H13.3088V47.3809H15.8918V61.289ZM23.283 55.3284H15.6732V53.1229H23.283V55.3284ZM33.1293 61.4281C32.0432 61.4281 31.0762 61.1963 30.2285 60.7327C29.3808 60.2558 28.7118 59.6068 28.2217 58.7855C27.7316 57.9643 27.4866 57.0305 27.4866 55.984C27.4866 54.9244 27.7316 53.9905 28.2217 53.1825C28.7118 52.3613 29.3808 51.7189 30.2285 51.2553C31.0762 50.7917 32.0432 50.5599 33.1293 50.5599C34.2287 50.5599 35.2023 50.7917 36.05 51.2553C36.911 51.7189 37.5799 52.3547 38.0568 53.1627C38.5469 53.9707 38.7919 54.9111 38.7919 55.984C38.7919 57.0305 38.5469 57.9643 38.0568 58.7855C37.5799 59.6068 36.911 60.2558 36.05 60.7327C35.2023 61.1963 34.2287 61.4281 33.1293 61.4281ZM33.1293 59.3021C33.7386 59.3021 34.2817 59.1697 34.7586 58.9047C35.2354 58.6398 35.6063 58.2557 35.8712 57.7524C36.1494 57.249 36.2885 56.6596 36.2885 55.984C36.2885 55.2953 36.1494 54.7058 35.8712 54.2157C35.6063 53.7124 35.2354 53.3282 34.7586 53.0633C34.2817 52.7984 33.7453 52.666 33.1492 52.666C32.5399 52.666 31.9968 52.7984 31.52 53.0633C31.0564 53.3282 30.6855 53.7124 30.4073 54.2157C30.1291 54.7058 29.9901 55.2953 29.9901 55.984C29.9901 56.6596 30.1291 57.249 30.4073 57.7524C30.6855 58.2557 31.0564 58.6398 31.52 58.9047C31.9968 59.1697 32.5333 59.3021 33.1293 59.3021ZM44.8625 61.4281C43.9617 61.4281 43.167 61.2625 42.4782 60.9314C41.7894 60.587 41.253 60.0704 40.8688 59.3816C40.4847 58.6796 40.2926 57.7987 40.2926 56.7391V50.6791H42.7762V56.4013C42.7762 57.355 42.9882 58.0703 43.412 58.5471C43.8492 59.0107 44.4651 59.2425 45.2598 59.2425C45.8427 59.2425 46.346 59.1233 46.7699 58.8849C47.207 58.6465 47.5447 58.2888 47.7832 57.812C48.0348 57.3351 48.1607 56.7457 48.1607 56.0436V50.6791H50.6443V61.289H48.2799V58.4279L48.6971 59.3021C48.3395 59.9909 47.8163 60.5207 47.1275 60.8916C46.4387 61.2493 45.6837 61.4281 44.8625 61.4281ZM53.1013 61.289V50.6791H55.4657V53.5998L55.1875 52.7454C55.5054 52.0302 56.0022 51.4871 56.6777 51.1162C57.3665 50.7453 58.2208 50.5599 59.2408 50.5599V52.9242C59.1348 52.8978 59.0355 52.8845 58.9427 52.8845C58.85 52.8713 58.7573 52.8646 58.6646 52.8646C57.7241 52.8646 56.9757 53.1428 56.4194 53.6991C55.8631 54.2422 55.5849 55.0568 55.5849 56.143V61.289H53.1013ZM63.9283 61.4281C63.0408 61.4281 62.1864 61.3155 61.3652 61.0903C60.5572 60.8519 59.9148 60.5671 59.4379 60.236L60.3916 58.3484C60.8685 58.6531 61.438 58.9047 62.1003 59.1034C62.7626 59.3021 63.4249 59.4015 64.0872 59.4015C64.8687 59.4015 65.4317 59.2955 65.7761 59.0836C66.1337 58.8716 66.3125 58.5868 66.3125 58.2292C66.3125 57.9378 66.1933 57.7192 65.9549 57.5735C65.7164 57.4146 65.4052 57.2954 65.021 57.2159C64.6369 57.1364 64.2064 57.0636 63.7296 56.9973C63.266 56.9311 62.7957 56.845 62.3189 56.7391C61.8553 56.6198 61.4314 56.4543 61.0473 56.2423C60.6632 56.0172 60.3519 55.7191 60.1135 55.3482C59.875 54.9774 59.7558 54.4873 59.7558 53.8779C59.7558 53.2024 59.9479 52.6196 60.332 52.1295C60.7161 51.6262 61.2526 51.242 61.9414 50.9771C62.6434 50.6989 63.4713 50.5599 64.425 50.5599C65.1403 50.5599 65.8622 50.6393 66.5907 50.7983C67.3192 50.9572 67.9219 51.1824 68.3987 51.4738L67.445 53.3614C66.9417 53.0567 66.4317 52.8514 65.9151 52.7454C65.4118 52.6262 64.9085 52.5666 64.4051 52.5666C63.6501 52.5666 63.0871 52.6792 62.7163 52.9044C62.3586 53.1296 62.1798 53.4143 62.1798 53.7587C62.1798 54.0766 62.299 54.3151 62.5374 54.474C62.7759 54.633 63.0871 54.7588 63.4713 54.8515C63.8554 54.9442 64.2793 55.0237 64.7429 55.0899C65.2197 55.1429 65.69 55.229 66.1536 55.3482C66.6172 55.4674 67.041 55.633 67.4252 55.845C67.8225 56.0436 68.1404 56.3284 68.3789 56.6993C68.6173 57.0702 68.7365 57.5537 68.7365 58.1497C68.7365 58.812 68.5378 59.3882 68.1404 59.8783C67.7563 60.3684 67.2066 60.7525 66.4913 61.0307C65.7761 61.2956 64.9217 61.4281 63.9283 61.4281ZM79.5454 61.4281C78.4593 61.4281 77.4923 61.1963 76.6446 60.7327C75.7969 60.2558 75.1279 59.6068 74.6378 58.7855C74.1477 57.9643 73.9027 57.0305 73.9027 55.984C73.9027 54.9244 74.1477 53.9905 74.6378 53.1825C75.1279 52.3613 75.7969 51.7189 76.6446 51.2553C77.4923 50.7917 78.4593 50.5599 79.5454 50.5599C80.6448 50.5599 81.6184 50.7917 82.4661 51.2553C83.3271 51.7189 83.996 52.3547 84.4729 53.1627C84.963 53.9707 85.208 54.9111 85.208 55.984C85.208 57.0305 84.963 57.9643 84.4729 58.7855C83.996 59.6068 83.3271 60.2558 82.4661 60.7327C81.6184 61.1963 80.6448 61.4281 79.5454 61.4281ZM79.5454 59.3021C80.1547 59.3021 80.6978 59.1697 81.1747 58.9047C81.6515 58.6398 82.0224 58.2557 82.2873 57.7524C82.5655 57.249 82.7046 56.6596 82.7046 55.984C82.7046 55.2953 82.5655 54.7058 82.2873 54.2157C82.0224 53.7124 81.6515 53.3282 81.1747 53.0633C80.6978 52.7984 80.1614 52.666 79.5653 52.666C78.956 52.666 78.4129 52.7984 77.9361 53.0633C77.4725 53.3282 77.1016 53.7124 76.8234 54.2157C76.5452 54.7058 76.4062 55.2953 76.4062 55.984C76.4062 56.6596 76.5452 57.249 76.8234 57.7524C77.1016 58.2557 77.4725 58.6398 77.9361 58.9047C78.4129 59.1697 78.9494 59.3021 79.5454 59.3021ZM87.126 61.289V50.083C87.126 48.9704 87.4505 48.0829 88.0996 47.4206C88.7619 46.7451 89.7023 46.4073 90.9209 46.4073C91.358 46.4073 91.7687 46.4536 92.1528 46.5464C92.5502 46.6391 92.8813 46.7848 93.1462 46.9835L92.4707 48.8511C92.2852 48.7054 92.0733 48.5995 91.8349 48.5332C91.5965 48.4538 91.3514 48.414 91.0997 48.414C90.5832 48.414 90.1924 48.5597 89.9275 48.8511C89.6626 49.1293 89.5301 49.5532 89.5301 50.1227V51.3149L89.6096 52.4275V61.289H87.126ZM85.3775 52.7454V50.7585H92.4508V52.7454H85.3775ZM102.892 61.4281C101.779 61.4281 100.786 61.1963 99.9117 60.7327C99.0507 60.2558 98.3752 59.6068 97.8851 58.7855C97.395 57.9643 97.1499 57.0305 97.1499 55.984C97.1499 54.9244 97.395 53.9905 97.8851 53.1825C98.3752 52.3613 99.0507 51.7189 99.9117 51.2553C100.786 50.7917 101.779 50.5599 102.892 50.5599C103.925 50.5599 104.833 50.7718 105.614 51.1957C106.409 51.6063 107.011 52.2156 107.422 53.0236L105.515 54.1362C105.197 53.6329 104.806 53.262 104.342 53.0236C103.892 52.7852 103.402 52.666 102.872 52.666C102.263 52.666 101.713 52.7984 101.223 53.0633C100.733 53.3282 100.349 53.7124 100.071 54.2157C99.7925 54.7058 99.6534 55.2953 99.6534 55.984C99.6534 56.6728 99.7925 57.2689 100.071 57.7722C100.349 58.2623 100.733 58.6398 101.223 58.9047C101.713 59.1697 102.263 59.3021 102.872 59.3021C103.402 59.3021 103.892 59.1829 104.342 58.9445C104.806 58.7061 105.197 58.3352 105.515 57.8318L107.422 58.9445C107.011 59.7392 106.409 60.3552 105.614 60.7923C104.833 61.2161 103.925 61.4281 102.892 61.4281ZM113.388 61.4281C112.301 61.4281 111.334 61.1963 110.487 60.7327C109.639 60.2558 108.97 59.6068 108.48 58.7855C107.99 57.9643 107.745 57.0305 107.745 55.984C107.745 54.9244 107.99 53.9905 108.48 53.1825C108.97 52.3613 109.639 51.7189 110.487 51.2553C111.334 50.7917 112.301 50.5599 113.388 50.5599C114.487 50.5599 115.461 50.7917 116.308 51.2553C117.169 51.7189 117.838 52.3547 118.315 53.1627C118.805 53.9707 119.05 54.9111 119.05 55.984C119.05 57.0305 118.805 57.9643 118.315 58.7855C117.838 59.6068 117.169 60.2558 116.308 60.7327C115.461 61.1963 114.487 61.4281 113.388 61.4281ZM113.388 59.3021C113.997 59.3021 114.54 59.1697 115.017 58.9047C115.494 58.6398 115.865 58.2557 116.129 57.7524C116.408 57.249 116.547 56.6596 116.547 55.984C116.547 55.2953 116.408 54.7058 116.129 54.2157C115.865 53.7124 115.494 53.3282 115.017 53.0633C114.54 52.7984 114.003 52.666 113.407 52.666C112.798 52.666 112.255 52.7984 111.778 53.0633C111.315 53.3282 110.944 53.7124 110.666 54.2157C110.387 54.7058 110.248 55.2953 110.248 55.984C110.248 56.6596 110.387 57.249 110.666 57.7524C110.944 58.2557 111.315 58.6398 111.778 58.9047C112.255 59.1697 112.791 59.3021 113.388 59.3021ZM126.651 50.5599C127.498 50.5599 128.253 50.7254 128.916 51.0566C129.591 51.3877 130.121 51.8977 130.505 52.5865C130.889 53.262 131.081 54.1362 131.081 55.2092V61.289H128.598V55.5271C128.598 54.5866 128.373 53.8846 127.922 53.421C127.485 52.9574 126.869 52.7256 126.074 52.7256C125.492 52.7256 124.975 52.8448 124.525 53.0832C124.074 53.3216 123.723 53.6793 123.472 54.1561C123.233 54.6197 123.114 55.2092 123.114 55.9244V61.289H120.63V50.6791H122.995V53.5402L122.577 52.666C122.948 51.9904 123.485 51.4738 124.187 51.1162C124.902 50.7453 125.723 50.5599 126.651 50.5599ZM137.431 61.4281C136.265 61.4281 135.364 61.1301 134.729 60.534C134.093 59.9247 133.775 59.0306 133.775 57.8517V48.3346H136.259V57.7921C136.259 58.2954 136.384 58.6862 136.636 58.9644C136.901 59.2425 137.265 59.3816 137.729 59.3816C138.285 59.3816 138.749 59.2359 139.12 58.9445L139.815 60.7128C139.524 60.9512 139.166 61.1301 138.742 61.2493C138.318 61.3685 137.881 61.4281 137.431 61.4281ZM132.026 52.7454V50.7585H139.1V52.7454H132.026ZM145.701 61.4281C144.522 61.4281 143.489 61.1963 142.602 60.7327C141.727 60.2558 141.045 59.6068 140.555 58.7855C140.078 57.9643 139.84 57.0305 139.84 55.984C139.84 54.9244 140.072 53.9905 140.535 53.1825C141.012 52.3613 141.661 51.7189 142.482 51.2553C143.317 50.7917 144.264 50.5599 145.324 50.5599C146.357 50.5599 147.277 50.785 148.085 51.2354C148.893 51.6858 149.529 52.3216 149.993 53.1428C150.456 53.964 150.688 54.931 150.688 56.0436C150.688 56.1496 150.682 56.2688 150.668 56.4013C150.668 56.5337 150.662 56.6596 150.648 56.7788H141.807V55.1297H149.337L148.364 55.6463C148.377 55.037 148.251 54.5005 147.986 54.0369C147.721 53.5733 147.357 53.209 146.893 52.9441C146.443 52.6792 145.92 52.5467 145.324 52.5467C144.714 52.5467 144.178 52.6792 143.714 52.9441C143.264 53.209 142.906 53.5799 142.641 54.0568C142.39 54.5204 142.264 55.0701 142.264 55.7059V56.1033C142.264 56.7391 142.41 57.302 142.701 57.7921C142.992 58.2822 143.403 58.6597 143.933 58.9246C144.463 59.1895 145.072 59.322 145.761 59.322C146.357 59.322 146.893 59.2293 147.37 59.0438C147.847 58.8584 148.271 58.567 148.642 58.1696L149.973 59.6995C149.496 60.2558 148.893 60.6863 148.165 60.991C147.45 61.2824 146.628 61.4281 145.701 61.4281ZM158.299 50.5599C159.147 50.5599 159.902 50.7254 160.564 51.0566C161.24 51.3877 161.77 51.8977 162.154 52.5865C162.538 53.262 162.73 54.1362 162.73 55.2092V61.289H160.247V55.5271C160.247 54.5866 160.021 53.8846 159.571 53.421C159.134 52.9574 158.518 52.7256 157.723 52.7256C157.14 52.7256 156.624 52.8448 156.173 53.0832C155.723 53.3216 155.372 53.6793 155.12 54.1561C154.882 54.6197 154.763 55.2092 154.763 55.9244V61.289H152.279V50.6791H154.644V53.5402L154.226 52.666C154.597 51.9904 155.134 51.4738 155.836 51.1162C156.551 50.7453 157.372 50.5599 158.299 50.5599ZM169.08 61.4281C167.914 61.4281 167.013 61.1301 166.377 60.534C165.742 59.9247 165.424 59.0306 165.424 57.8517V48.3346H167.907V57.7921C167.907 58.2954 168.033 58.6862 168.285 58.9644C168.55 59.2425 168.914 59.3816 169.378 59.3816C169.934 59.3816 170.398 59.2359 170.768 58.9445L171.464 60.7128C171.172 60.9512 170.815 61.1301 170.391 61.2493C169.967 61.3685 169.53 61.4281 169.08 61.4281ZM163.675 52.7454V50.7585H170.749V52.7454H163.675Z" fill="#585858"/>
<path d="M240.65 6.27319V63.0411" stroke="#E0E0E0" stroke-width="1.4192"/>
<path d="M325.674 1.89702C325.631 1.80123 325.561 1.71997 325.473 1.66313C325.385 1.6063 325.282 1.57634 325.177 1.57691H309.801C309.708 1.57707 309.618 1.60039 309.537 1.64474C309.456 1.6891 309.387 1.75307 309.337 1.83079L297.515 20.5957C297.458 20.6775 297.425 20.7733 297.419 20.8727C297.413 20.9721 297.435 21.0712 297.482 21.1591C297.528 21.247 297.599 21.3203 297.684 21.3708C297.77 21.4214 297.868 21.4473 297.968 21.4457H306.434L298.961 36.0713C298.918 36.1583 298.898 36.2547 298.903 36.3516C298.907 36.4485 298.936 36.5427 298.987 36.6253C299.037 36.708 299.108 36.7765 299.193 36.8244C299.277 36.8723 299.372 36.898 299.469 36.8992H302.78C302.857 36.8997 302.933 36.8843 303.003 36.8539C303.074 36.8235 303.137 36.7787 303.189 36.7226L322.583 15.761C322.66 15.6825 322.712 15.5829 322.732 15.4747C322.752 15.3666 322.739 15.255 322.695 15.1542C322.651 15.0534 322.578 14.968 322.485 14.9089C322.393 14.8499 322.285 14.8199 322.175 14.8228H314.735L325.585 2.48205C325.655 2.40365 325.701 2.30657 325.717 2.20268C325.732 2.09878 325.717 1.99257 325.674 1.89702Z" fill="#2B788B"/>
<path d="M359.439 13.0369C363.15 13.0369 366.259 13.5577 368.765 14.5994C371.304 15.6085 373.192 16.9919 374.429 18.7497C375.699 20.4749 376.333 22.4118 376.333 24.5602C376.333 29.4429 374.625 32.991 371.207 35.2045C367.821 37.3855 363.28 38.476 357.584 38.476C352.799 38.476 348.583 37.6784 344.937 36.0834C341.324 34.4558 338.704 31.7378 337.076 27.9293C338.867 27.6688 340.82 27.2457 342.936 26.6597C345.084 26.0738 347.021 25.4716 348.746 24.8531C349.43 26.2528 350.39 27.2782 351.627 27.9293C352.864 28.5477 354.524 28.857 356.607 28.857C358.821 28.857 360.644 28.4989 362.076 27.7828C363.541 27.0666 364.273 26.0738 364.273 24.8043C364.273 23.5022 363.638 22.4118 362.369 21.5329C361.099 20.654 359.163 20.2145 356.558 20.2145C354.866 20.2145 353.32 20.5238 351.92 21.1422C350.52 21.7282 349.511 22.5745 348.893 23.6813H337.613C338.395 20.3285 339.078 16.7152 339.664 12.8416C340.283 8.96796 340.657 5.53377 340.787 2.53903H375.064V12.0115C371.451 11.7837 368.033 11.6535 364.81 11.6209C361.62 11.5558 357.144 11.5233 351.383 11.5233L350.894 14.2576C353.368 13.4438 356.217 13.0369 359.439 13.0369Z" fill="black"/>
<path d="M378.276 2.4902H413.627V8.78893C407.247 18.4567 402.316 28.1897 398.833 37.9877H385.649C389.197 29.1662 393.868 20.3936 399.663 11.6697C390.646 11.6697 383.517 11.8325 378.276 12.158V2.4902Z" fill="black"/>
<path d="M435.164 13.0369C438.874 13.0369 441.983 13.5577 444.49 14.5994C447.029 15.6085 448.917 16.9919 450.154 18.7497C451.423 20.4749 452.058 22.4118 452.058 24.5602C452.058 29.4429 450.349 32.991 446.931 35.2045C443.546 37.3855 439.005 38.476 433.308 38.476C428.523 38.476 424.308 37.6784 420.662 36.0834C417.049 34.4558 414.428 31.7378 412.801 27.9293C414.591 27.6688 416.544 27.2457 418.66 26.6597C420.808 26.0738 422.745 25.4716 424.47 24.8531C425.154 26.2528 426.114 27.2782 427.351 27.9293C428.588 28.5477 430.248 28.857 432.332 28.857C434.545 28.857 436.368 28.4989 437.8 27.7828C439.265 27.0666 439.997 26.0738 439.997 24.8043C439.997 23.5022 439.363 22.4118 438.093 21.5329C436.824 20.654 434.887 20.2145 432.283 20.2145C430.59 20.2145 429.044 20.5238 427.644 21.1422C426.244 21.7282 425.235 22.5745 424.617 23.6813H413.338C414.119 20.3285 414.803 16.7152 415.388 12.8416C416.007 8.96796 416.381 5.53377 416.512 2.53903H450.788V12.0115C447.175 11.7837 443.757 11.6535 440.535 11.6209C437.345 11.5558 432.869 11.5233 427.107 11.5233L426.619 14.2576C429.093 13.4438 431.941 13.0369 435.164 13.0369Z" fill="black"/>
<path d="M488.473 11.2791L476.364 22.3141C480.498 28.1734 484.355 33.3979 487.936 37.9877H474.996L472.506 33.9838C470.879 31.2821 469.804 29.5243 469.284 28.7105L465.231 32.4214V37.9877H454.001C454.261 31.8029 454.391 25.5367 454.391 19.1892C454.391 12.809 454.261 6.41266 454.001 0H465.231V20.7028C468.388 17.4802 471.367 14.339 474.166 11.2791H488.473Z" fill="black"/>
<path d="M505.274 16.6013H513.965V26.1226H505.274V34.8627H495.753V26.1226H487.013V16.6013H495.753V7.86121H505.274V16.6013Z" fill="black"/>
<path d="M346.592 62.3144L352.851 48.4062H355.394L361.673 62.3144H358.971L353.586 49.7772H354.619L349.255 62.3144H346.592ZM349.473 59.0957L350.169 57.069H357.679L358.375 59.0957H349.473ZM367.179 62.4535C366.067 62.4535 365.073 62.2217 364.199 61.7581C363.338 61.2812 362.662 60.6322 362.172 59.8109C361.682 58.9897 361.437 58.0559 361.437 57.0094C361.437 55.9498 361.682 55.0159 362.172 54.2079C362.662 53.3867 363.338 52.7443 364.199 52.2807C365.073 51.8171 366.067 51.5853 367.179 51.5853C368.212 51.5853 369.12 51.7972 369.901 52.2211C370.696 52.6317 371.299 53.241 371.709 54.049L369.802 55.1616C369.484 54.6583 369.093 54.2874 368.63 54.049C368.179 53.8106 367.689 53.6913 367.159 53.6913C366.55 53.6913 366 53.8238 365.51 54.0887C365.02 54.3536 364.636 54.7378 364.358 55.2411C364.08 55.7312 363.941 56.3206 363.941 57.0094C363.941 57.6982 364.08 58.2943 364.358 58.7976C364.636 59.2877 365.02 59.6652 365.51 59.9301C366 60.1951 366.55 60.3275 367.159 60.3275C367.689 60.3275 368.179 60.2083 368.63 59.9699C369.093 59.7315 369.484 59.3606 369.802 58.8572L371.709 59.9699C371.299 60.7646 370.696 61.3806 369.901 61.8177C369.12 62.2415 368.212 62.4535 367.179 62.4535ZM377.191 62.4535C376.025 62.4535 375.125 62.1554 374.489 61.5594C373.853 60.9501 373.535 60.056 373.535 58.8771V49.3599H376.019V58.8175C376.019 59.3208 376.144 59.7116 376.396 59.9897C376.661 60.2679 377.025 60.407 377.489 60.407C378.045 60.407 378.509 60.2613 378.88 59.9699L379.575 61.7382C379.284 61.9766 378.926 62.1554 378.502 62.2747C378.078 62.3939 377.641 62.4535 377.191 62.4535ZM371.787 53.7708V51.7839H378.86V53.7708H371.787ZM380.823 62.3144V51.7045H383.307V62.3144H380.823ZM382.075 49.956C381.612 49.956 381.227 49.8103 380.923 49.5189C380.631 49.2275 380.486 48.8765 380.486 48.4659C380.486 48.042 380.631 47.691 380.923 47.4128C381.227 47.1214 381.612 46.9757 382.075 46.9757C382.539 46.9757 382.916 47.1148 383.208 47.3929C383.512 47.6579 383.665 47.9956 383.665 48.4062C383.665 48.8434 383.519 49.2142 383.228 49.5189C382.936 49.8103 382.552 49.956 382.075 49.956ZM388.593 62.3144L384.043 51.7045H386.626L390.541 61.0627H389.269L393.322 51.7045H395.706L391.156 62.3144H388.593ZM401.16 62.4535C399.981 62.4535 398.948 62.2217 398.06 61.7581C397.186 61.2812 396.504 60.6322 396.014 59.8109C395.537 58.9897 395.299 58.0559 395.299 57.0094C395.299 55.9498 395.53 55.0159 395.994 54.2079C396.471 53.3867 397.12 52.7443 397.941 52.2807C398.776 51.8171 399.723 51.5853 400.782 51.5853C401.816 51.5853 402.736 51.8104 403.544 52.2608C404.352 52.7111 404.988 53.347 405.452 54.1682C405.915 54.9894 406.147 55.9564 406.147 57.069C406.147 57.175 406.14 57.2942 406.127 57.4267C406.127 57.5591 406.121 57.685 406.107 57.8042H397.266V56.1551H404.796L403.822 56.6717C403.836 56.0624 403.71 55.5259 403.445 55.0623C403.18 54.5987 402.816 54.2344 402.352 53.9695C401.902 53.7046 401.378 53.5721 400.782 53.5721C400.173 53.5721 399.637 53.7046 399.173 53.9695C398.723 54.2344 398.365 54.6053 398.1 55.0822C397.848 55.5458 397.723 56.0955 397.723 56.7313V57.1286C397.723 57.7644 397.868 58.3274 398.16 58.8175C398.451 59.3076 398.862 59.6851 399.392 59.95C399.921 60.2149 400.531 60.3474 401.22 60.3474C401.816 60.3474 402.352 60.2547 402.829 60.0692C403.306 59.8838 403.73 59.5924 404.101 59.195L405.432 60.7249C404.955 61.2812 404.352 61.7117 403.624 62.0164C402.908 62.3078 402.087 62.4535 401.16 62.4535ZM418.653 62.5131C416.746 62.5131 415.249 61.9766 414.163 60.9037C413.09 59.8308 412.553 58.281 412.553 56.2544V48.4062H415.136V56.1551C415.136 57.5856 415.441 58.6254 416.05 59.2745C416.673 59.9235 417.547 60.248 418.673 60.248C419.799 60.248 420.667 59.9235 421.276 59.2745C421.885 58.6254 422.19 57.5856 422.19 56.1551V48.4062H424.733V56.2544C424.733 58.281 424.19 59.8308 423.104 60.9037C422.031 61.9766 420.547 62.5131 418.653 62.5131ZM430.596 62.4535C429.708 62.4535 428.854 62.3409 428.032 62.1157C427.224 61.8773 426.582 61.5925 426.105 61.2613L427.059 59.3738C427.536 59.6785 428.105 59.9301 428.768 60.1288C429.43 60.3275 430.092 60.4269 430.754 60.4269C431.536 60.4269 432.099 60.3209 432.443 60.109C432.801 59.897 432.98 59.6122 432.98 59.2546C432.98 58.9632 432.861 58.7446 432.622 58.5989C432.384 58.44 432.072 58.3208 431.688 58.2413C431.304 58.1618 430.874 58.089 430.397 58.0227C429.933 57.9565 429.463 57.8704 428.986 57.7644C428.523 57.6452 428.099 57.4797 427.715 57.2677C427.33 57.0425 427.019 56.7445 426.781 56.3736C426.542 56.0027 426.423 55.5126 426.423 54.9033C426.423 54.2278 426.615 53.645 426.999 53.1549C427.383 52.6515 427.92 52.2674 428.609 52.0025C429.311 51.7243 430.139 51.5853 431.092 51.5853C431.808 51.5853 432.529 51.6647 433.258 51.8237C433.986 51.9826 434.589 52.2078 435.066 52.4992L434.112 54.3867C433.609 54.0821 433.099 53.8768 432.582 53.7708C432.079 53.6516 431.576 53.592 431.072 53.592C430.317 53.592 429.754 53.7046 429.384 53.9298C429.026 54.1549 428.847 54.4397 428.847 54.7841C428.847 55.102 428.966 55.3405 429.205 55.4994C429.443 55.6584 429.754 55.7842 430.139 55.8769C430.523 55.9696 430.947 56.0491 431.41 56.1153C431.887 56.1683 432.357 56.2544 432.821 56.3736C433.284 56.4928 433.708 56.6584 434.092 56.8703C434.49 57.069 434.808 57.3538 435.046 57.7247C435.285 58.0956 435.404 58.5791 435.404 59.1751C435.404 59.8374 435.205 60.4136 434.808 60.9037C434.424 61.3938 433.874 61.7779 433.159 62.0561C432.443 62.321 431.589 62.4535 430.596 62.4535ZM441.735 62.4535C440.556 62.4535 439.523 62.2217 438.635 61.7581C437.761 61.2812 437.079 60.6322 436.589 59.8109C436.112 58.9897 435.874 58.0559 435.874 57.0094C435.874 55.9498 436.105 55.0159 436.569 54.2079C437.046 53.3867 437.695 52.7443 438.516 52.2807C439.351 51.8171 440.298 51.5853 441.357 51.5853C442.391 51.5853 443.311 51.8104 444.119 52.2608C444.927 52.7111 445.563 53.347 446.027 54.1682C446.49 54.9894 446.722 55.9564 446.722 57.069C446.722 57.175 446.715 57.2942 446.702 57.4267C446.702 57.5591 446.695 57.685 446.682 57.8042H437.841V56.1551H445.371L444.397 56.6717C444.411 56.0624 444.285 55.5259 444.02 55.0623C443.755 54.5987 443.391 54.2344 442.927 53.9695C442.477 53.7046 441.953 53.5721 441.357 53.5721C440.748 53.5721 440.212 53.7046 439.748 53.9695C439.298 54.2344 438.94 54.6053 438.675 55.0822C438.423 55.5458 438.298 56.0955 438.298 56.7313V57.1286C438.298 57.7644 438.443 58.3274 438.735 58.8175C439.026 59.3076 439.437 59.6851 439.967 59.95C440.496 60.2149 441.106 60.3474 441.795 60.3474C442.391 60.3474 442.927 60.2547 443.404 60.0692C443.881 59.8838 444.305 59.5924 444.676 59.195L446.007 60.7249C445.53 61.2812 444.927 61.7117 444.199 62.0164C443.483 62.3078 442.662 62.4535 441.735 62.4535ZM448.313 62.3144V51.7045H450.677V54.6252L450.399 53.7708C450.717 53.0555 451.214 52.5125 451.889 52.1416C452.578 51.7707 453.432 51.5853 454.452 51.5853V53.9496C454.346 53.9231 454.247 53.9099 454.154 53.9099C454.062 53.8967 453.969 53.89 453.876 53.89C452.936 53.89 452.187 54.1682 451.631 54.7245C451.075 55.2676 450.796 56.0822 450.796 57.1684V62.3144H448.313ZM459.14 62.4535C458.252 62.4535 457.398 62.3409 456.577 62.1157C455.769 61.8773 455.126 61.5925 454.649 61.2613L455.603 59.3738C456.08 59.6785 456.65 59.9301 457.312 60.1288C457.974 60.3275 458.636 60.4269 459.299 60.4269C460.08 60.4269 460.643 60.3209 460.988 60.109C461.345 59.897 461.524 59.6122 461.524 59.2546C461.524 58.9632 461.405 58.7446 461.166 58.5989C460.928 58.44 460.617 58.3208 460.233 58.2413C459.848 58.1618 459.418 58.089 458.941 58.0227C458.478 57.9565 458.007 57.8704 457.53 57.7644C457.067 57.6452 456.643 57.4797 456.259 57.2677C455.875 57.0425 455.563 56.7445 455.325 56.3736C455.087 56.0027 454.967 55.5126 454.967 54.9033C454.967 54.2278 455.159 53.645 455.544 53.1549C455.928 52.6515 456.464 52.2674 457.153 52.0025C457.855 51.7243 458.683 51.5853 459.637 51.5853C460.352 51.5853 461.074 51.6647 461.802 51.8237C462.531 51.9826 463.133 52.2078 463.61 52.4992L462.657 54.3867C462.153 54.0821 461.643 53.8768 461.127 53.7708C460.623 53.6516 460.12 53.592 459.617 53.592C458.862 53.592 458.299 53.7046 457.928 53.9298C457.57 54.1549 457.391 54.4397 457.391 54.7841C457.391 55.102 457.511 55.3405 457.749 55.4994C457.987 55.6584 458.299 55.7842 458.683 55.8769C459.067 55.9696 459.491 56.0491 459.954 56.1153C460.431 56.1683 460.902 56.2544 461.365 56.3736C461.829 56.4928 462.253 56.6584 462.637 56.8703C463.034 57.069 463.352 57.3538 463.59 57.7247C463.829 58.0956 463.948 58.5791 463.948 59.1751C463.948 59.8374 463.749 60.4136 463.352 60.9037C462.968 61.3938 462.418 61.7779 461.703 62.0561C460.988 62.321 460.133 62.4535 459.14 62.4535Z" fill="#585858"/>
</svg>
