<svg width="180" height="52" viewBox="0 0 180 52" fill="none" xmlns="http://www.w3.org/2000/svg">
<rect width="179.091" height="51.0911" rx="17.0304" fill="#C3DCE3"/>
<path d="M27.1947 32.5456V18.6374H30.4134V29.9229H37.3874V32.5456H27.1947ZM43.4192 32.7045C42.2006 32.7045 41.1277 32.4661 40.2005 31.9893C39.2865 31.5124 38.5779 30.8634 38.0745 30.0421C37.5712 29.2076 37.3195 28.2606 37.3195 27.2009C37.3195 26.128 37.5646 25.1809 38.0547 24.3597C38.558 23.5252 39.2402 22.8761 40.1011 22.4125C40.9621 21.9357 41.9357 21.6972 43.0219 21.6972C44.0683 21.6972 45.0087 21.9224 45.8432 22.3728C46.691 22.8099 47.3599 23.4457 47.85 24.2802C48.3401 25.1014 48.5851 26.0882 48.5851 27.2406C48.5851 27.3598 48.5785 27.4989 48.5652 27.6579C48.552 27.8036 48.5388 27.9427 48.5255 28.0751H39.8429V26.2671H46.8963L45.7041 26.8035C45.7041 26.2472 45.5916 25.7637 45.3664 25.3531C45.1412 24.9425 44.8299 24.6246 44.4325 24.3994C44.0352 24.161 43.5716 24.0418 43.0417 24.0418C42.5119 24.0418 42.0417 24.161 41.631 24.3994C41.2337 24.6246 40.9224 24.9491 40.6972 25.373C40.472 25.7836 40.3594 26.2737 40.3594 26.8433V27.3201C40.3594 27.9029 40.4853 28.4195 40.737 28.8699C41.0019 29.307 41.3661 29.6448 41.8297 29.8832C42.3066 30.1084 42.8629 30.2209 43.4987 30.2209C44.0683 30.2209 44.565 30.1348 44.9889 29.9627C45.426 29.7905 45.8234 29.5322 46.181 29.1878L47.8301 30.976C47.34 31.5323 46.7241 31.9628 45.9823 32.2674C45.2405 32.5588 44.3862 32.7045 43.4192 32.7045ZM56.1196 32.5456V30.4594L55.9209 30.0024V26.2671C55.9209 25.6048 55.7156 25.0882 55.305 24.7173C54.9076 24.3464 54.2916 24.161 53.4572 24.161C52.8876 24.161 52.3246 24.2537 51.7683 24.4391C51.2252 24.6113 50.7616 24.8498 50.3775 25.1544L49.2648 22.9887C49.8477 22.5781 50.5497 22.2602 51.3709 22.035C52.1922 21.8098 53.0267 21.6972 53.8744 21.6972C55.5036 21.6972 56.7686 22.0814 57.6693 22.8496C58.5701 23.6179 59.0204 24.8166 59.0204 26.4459V32.5456H56.1196ZM52.8611 32.7045C52.0266 32.7045 51.3113 32.5655 50.7153 32.2873C50.1192 31.9959 49.6622 31.6051 49.3443 31.115C49.0264 30.6249 48.8675 30.0752 48.8675 29.4659C48.8675 28.8301 49.0198 28.2738 49.3245 27.797C49.6424 27.3201 50.1391 26.9492 50.8146 26.6843C51.4901 26.4061 52.371 26.2671 53.4572 26.2671H56.2984V28.0751H53.7949C53.0664 28.0751 52.5631 28.1943 52.2849 28.4328C52.02 28.6712 51.8875 28.9692 51.8875 29.3269C51.8875 29.7242 52.0399 30.0421 52.3445 30.2806C52.6624 30.5057 53.0929 30.6183 53.636 30.6183C54.1526 30.6183 54.6162 30.4991 55.0268 30.2607C55.4374 30.009 55.7354 29.6448 55.9209 29.1679L56.3977 30.5985C56.1726 31.2872 55.7619 31.8104 55.1659 32.1681C54.5698 32.5257 53.8016 32.7045 52.8611 32.7045ZM61.0309 32.5456V21.8562H63.9913V24.8762L63.5741 24.002C63.892 23.247 64.402 22.6774 65.104 22.2933C65.806 21.8959 66.6604 21.6972 67.6671 21.6972V24.5583C67.5346 24.5451 67.4154 24.5385 67.3094 24.5385C67.2035 24.5252 67.0909 24.5186 66.9717 24.5186C66.1239 24.5186 65.4351 24.7637 64.9053 25.2538C64.3887 25.7306 64.1304 26.479 64.1304 27.4989V32.5456H61.0309ZM75.2318 21.6972C76.0795 21.6972 76.8345 21.8694 77.4968 22.2138C78.1724 22.545 78.7022 23.0616 79.0863 23.7636C79.4705 24.4524 79.6625 25.3398 79.6625 26.426V32.5456H76.563V26.9029C76.563 26.0419 76.3709 25.4061 75.9868 24.9955C75.6159 24.5848 75.0861 24.3795 74.3973 24.3795C73.9072 24.3795 73.4635 24.4855 73.0661 24.6974C72.682 24.8961 72.3773 25.2074 72.1521 25.6313C71.9402 26.0551 71.8342 26.5982 71.8342 27.2605V32.5456H68.7347V21.8562H71.6951V24.8166L71.1388 23.9225C71.5229 23.2073 72.0726 22.6576 72.7879 22.2734C73.5032 21.8893 74.3178 21.6972 75.2318 21.6972ZM100.199 21.6972C101.047 21.6972 101.795 21.8694 102.444 22.2138C103.107 22.545 103.623 23.0616 103.994 23.7636C104.378 24.4524 104.57 25.3398 104.57 26.426V32.5456H101.471V26.9029C101.471 26.0419 101.292 25.4061 100.934 24.9955C100.577 24.5848 100.073 24.3795 99.4242 24.3795C98.9738 24.3795 98.5698 24.4855 98.2122 24.6974C97.8546 24.8961 97.5764 25.2008 97.3777 25.6114C97.179 26.022 97.0797 26.5452 97.0797 27.181V32.5456H93.9801V26.9029C93.9801 26.0419 93.8013 25.4061 93.4437 24.9955C93.0993 24.5848 92.6026 24.3795 91.9535 24.3795C91.5032 24.3795 91.0992 24.4855 90.7415 24.6974C90.3839 24.8961 90.1057 25.2008 89.9071 25.6114C89.7084 26.022 89.609 26.5452 89.609 27.181V32.5456H86.5095V21.8562H89.4699V24.7769L88.9136 23.9225C89.2845 23.194 89.8077 22.6443 90.4832 22.2734C91.172 21.8893 91.9535 21.6972 92.8278 21.6972C93.808 21.6972 94.6623 21.9489 95.3908 22.4523C96.1326 22.9424 96.6227 23.6974 96.8611 24.7173L95.7683 24.4193C96.126 23.5848 96.6955 22.9225 97.4771 22.4324C98.2718 21.9423 99.1791 21.6972 100.199 21.6972ZM111.718 32.7045C110.579 32.7045 109.565 32.4661 108.678 31.9893C107.804 31.5124 107.108 30.8634 106.592 30.0421C106.088 29.2076 105.837 28.2606 105.837 27.2009C105.837 26.128 106.088 25.1809 106.592 24.3597C107.108 23.5252 107.804 22.8761 108.678 22.4125C109.565 21.9357 110.579 21.6972 111.718 21.6972C112.844 21.6972 113.85 21.9357 114.738 22.4125C115.625 22.8761 116.321 23.5185 116.824 24.3398C117.327 25.161 117.579 26.1147 117.579 27.2009C117.579 28.2606 117.327 29.2076 116.824 30.0421C116.321 30.8634 115.625 31.5124 114.738 31.9893C113.85 32.4661 112.844 32.7045 111.718 32.7045ZM111.718 30.1613C112.234 30.1613 112.698 30.0421 113.109 29.8037C113.519 29.5653 113.844 29.2275 114.082 28.7904C114.32 28.34 114.44 27.8102 114.44 27.2009C114.44 26.5783 114.32 26.0485 114.082 25.6114C113.844 25.1743 113.519 24.8365 113.109 24.5981C112.698 24.3597 112.234 24.2404 111.718 24.2404C111.201 24.2404 110.737 24.3597 110.327 24.5981C109.916 24.8365 109.585 25.1743 109.333 25.6114C109.095 26.0485 108.976 26.5783 108.976 27.2009C108.976 27.8102 109.095 28.34 109.333 28.7904C109.585 29.2275 109.916 29.5653 110.327 29.8037C110.737 30.0421 111.201 30.1613 111.718 30.1613ZM118.856 32.5456V21.8562H121.816V24.8762L121.399 24.002C121.717 23.247 122.227 22.6774 122.929 22.2933C123.631 21.8959 124.485 21.6972 125.492 21.6972V24.5583C125.36 24.5451 125.241 24.5385 125.135 24.5385C125.029 24.5252 124.916 24.5186 124.797 24.5186C123.949 24.5186 123.26 24.7637 122.73 25.2538C122.214 25.7306 121.956 26.479 121.956 27.4989V32.5456H118.856ZM131.768 32.7045C130.549 32.7045 129.476 32.4661 128.549 31.9893C127.635 31.5124 126.926 30.8634 126.423 30.0421C125.92 29.2076 125.668 28.2606 125.668 27.2009C125.668 26.128 125.913 25.1809 126.403 24.3597C126.907 23.5252 127.589 22.8761 128.45 22.4125C129.311 21.9357 130.284 21.6972 131.37 21.6972C132.417 21.6972 133.357 21.9224 134.192 22.3728C135.039 22.8099 135.708 23.4457 136.199 24.2802C136.689 25.1014 136.934 26.0882 136.934 27.2406C136.934 27.3598 136.927 27.4989 136.914 27.6579C136.901 27.8036 136.887 27.9427 136.874 28.0751H128.191V26.2671H135.245L134.053 26.8035C134.053 26.2472 133.94 25.7637 133.715 25.3531C133.49 24.9425 133.178 24.6246 132.781 24.3994C132.384 24.161 131.92 24.0418 131.39 24.0418C130.86 24.0418 130.39 24.161 129.98 24.3994C129.582 24.6246 129.271 24.9491 129.046 25.373C128.821 25.7836 128.708 26.2737 128.708 26.8433V27.3201C128.708 27.9029 128.834 28.4195 129.085 28.8699C129.35 29.307 129.715 29.6448 130.178 29.8832C130.655 30.1084 131.211 30.2209 131.847 30.2209C132.417 30.2209 132.914 30.1348 133.337 29.9627C133.775 29.7905 134.172 29.5322 134.53 29.1878L136.179 30.976C135.689 31.5323 135.073 31.9628 134.331 32.2674C133.589 32.5588 132.735 32.7045 131.768 32.7045ZM149.114 22.5913L152.055 27.0618L149.114 31.572H146.432L149.134 27.0618L146.432 22.5913H149.114ZM149.711 25.9889V28.1546H142.597V25.9889H149.711Z" fill="#2B788B"/>
</svg>
