<svg width="293" height="52" viewBox="0 0 293 52" fill="none" xmlns="http://www.w3.org/2000/svg">
<path d="M6.21893 32.784C5.10628 32.784 4.03998 32.6383 3.02005 32.3469C2.00012 32.0423 1.17888 31.6515 0.556326 31.1746L1.64911 28.7507C2.24517 29.1745 2.9472 29.5255 3.7552 29.8037C4.57644 30.0686 5.40431 30.2011 6.2388 30.2011C6.8746 30.2011 7.38456 30.1415 7.76869 30.0223C8.16607 29.8898 8.45748 29.711 8.64292 29.4858C8.82836 29.2606 8.92108 29.0023 8.92108 28.7109C8.92108 28.34 8.77538 28.0486 8.48397 27.8367C8.19256 27.6115 7.80843 27.4327 7.33158 27.3002C6.85473 27.1545 6.32489 27.0221 5.74208 26.9029C5.1725 26.7704 4.59631 26.6115 4.01349 26.426C3.44392 26.2406 2.92071 26.0021 2.44386 25.7107C1.96701 25.4193 1.57626 25.0352 1.2716 24.5583C0.980193 24.0815 0.834489 23.4722 0.834489 22.7304C0.834489 21.9357 1.04642 21.2138 1.47029 20.5647C1.9074 19.9024 2.55645 19.3792 3.41743 18.9951C4.29166 18.5977 5.38444 18.399 6.69578 18.399C7.57 18.399 8.43098 18.505 9.27872 18.7169C10.1265 18.9156 10.8748 19.2203 11.5239 19.6309L10.5305 22.0747C9.88141 21.7039 9.23236 21.4323 8.58331 21.2601C7.93426 21.0747 7.29846 20.982 6.67591 20.982C6.05335 20.982 5.54339 21.0548 5.14601 21.2005C4.74864 21.3462 4.46385 21.5383 4.29166 21.7767C4.11946 22.0019 4.03336 22.2668 4.03336 22.5715C4.03336 22.9291 4.17907 23.2205 4.47047 23.4457C4.76188 23.6576 5.14601 23.8298 5.62286 23.9623C6.09971 24.0947 6.62293 24.2272 7.1925 24.3597C7.77531 24.4921 8.35151 24.6444 8.92108 24.8166C9.5039 24.9888 10.0337 25.2206 10.5106 25.512C10.9874 25.8035 11.3716 26.1876 11.663 26.6644C11.9676 27.1413 12.12 27.744 12.12 28.4725C12.12 29.254 11.9014 29.9693 11.4643 30.6183C11.0272 31.2674 10.3715 31.7906 9.49728 32.188C8.6363 32.5853 7.54351 32.784 6.21893 32.784ZM13.306 32.5456V21.8562H16.4056V32.5456H13.306ZM14.8558 20.366C14.2862 20.366 13.8226 20.2005 13.465 19.8693C13.1073 19.5382 12.9285 19.1275 12.9285 18.6374C12.9285 18.1474 13.1073 17.7367 13.465 17.4056C13.8226 17.0744 14.2862 16.9089 14.8558 16.9089C15.4254 16.9089 15.889 17.0678 16.2466 17.3857C16.6042 17.6904 16.7831 18.0877 16.7831 18.5778C16.7831 19.0944 16.6042 19.5249 16.2466 19.8693C15.9022 20.2005 15.4386 20.366 14.8558 20.366ZM23.5142 36.5591C22.5075 36.5591 21.534 36.4333 20.5935 36.1816C19.6663 35.9432 18.8914 35.5789 18.2689 35.0888L19.5007 32.8635C19.9511 33.2344 20.5207 33.5258 21.2095 33.7377C21.9115 33.9629 22.6003 34.0755 23.2758 34.0755C24.3752 34.0755 25.17 33.8304 25.6601 33.3403C26.1634 32.8502 26.4151 32.1217 26.4151 31.1548V29.5454L26.6138 26.8631L26.574 24.161V21.8562H29.5146V30.7574C29.5146 32.7443 28.998 34.2079 27.9648 35.1484C26.9317 36.0889 25.4481 36.5591 23.5142 36.5591ZM23.0374 32.029C22.0439 32.029 21.1432 31.8171 20.3352 31.3932C19.5405 30.9561 18.8981 30.3534 18.408 29.5851C17.9311 28.8036 17.6927 27.8963 17.6927 26.8631C17.6927 25.8167 17.9311 24.9094 18.408 24.1411C18.8981 23.3596 19.5405 22.7569 20.3352 22.333C21.1432 21.9092 22.0439 21.6972 23.0374 21.6972C23.9381 21.6972 24.7329 21.8827 25.4216 22.2536C26.1104 22.6112 26.6469 23.1742 27.031 23.9424C27.4151 24.6974 27.6072 25.671 27.6072 26.8631C27.6072 28.042 27.4151 29.0156 27.031 29.7838C26.6469 30.5388 26.1104 31.1018 25.4216 31.4727C24.7329 31.8436 23.9381 32.029 23.0374 32.029ZM23.6533 29.4858C24.1964 29.4858 24.6799 29.3798 25.1037 29.1679C25.5276 28.9427 25.8587 28.6314 26.0972 28.2341C26.3356 27.8367 26.4548 27.3797 26.4548 26.8631C26.4548 26.3333 26.3356 25.8763 26.0972 25.4922C25.8587 25.0948 25.5276 24.7901 25.1037 24.5782C24.6799 24.353 24.1964 24.2404 23.6533 24.2404C23.1102 24.2404 22.6268 24.353 22.2029 24.5782C21.779 24.7901 21.4413 25.0948 21.1896 25.4922C20.9512 25.8763 20.8319 26.3333 20.8319 26.8631C20.8319 27.3797 20.9512 27.8367 21.1896 28.2341C21.4413 28.6314 21.779 28.9427 22.2029 29.1679C22.6268 29.3798 23.1102 29.4858 23.6533 29.4858ZM38.1018 21.6972C38.9495 21.6972 39.7045 21.8694 40.3668 22.2138C41.0424 22.545 41.5722 23.0616 41.9563 23.7636C42.3405 24.4524 42.5325 25.3398 42.5325 26.426V32.5456H39.433V26.9029C39.433 26.0419 39.2409 25.4061 38.8568 24.9955C38.4859 24.5848 37.9561 24.3795 37.2673 24.3795C36.7772 24.3795 36.3335 24.4855 35.9361 24.6974C35.552 24.8961 35.2473 25.2074 35.0221 25.6313C34.8102 26.0551 34.7042 26.5982 34.7042 27.2605V32.5456H31.6047V21.8562H34.5652V24.8166L34.0088 23.9225C34.393 23.2073 34.9427 22.6576 35.6579 22.2734C36.3732 21.8893 37.1878 21.6972 38.1018 21.6972ZM49.5981 32.5456V18.6374H52.8168V32.5456H49.5981ZM61.6013 21.6972C62.449 21.6972 63.204 21.8694 63.8663 22.2138C64.5419 22.545 65.0717 23.0616 65.4558 23.7636C65.84 24.4524 66.032 25.3398 66.032 26.426V32.5456H62.9325V26.9029C62.9325 26.0419 62.7404 25.4061 62.3563 24.9955C61.9854 24.5848 61.4556 24.3795 60.7668 24.3795C60.2767 24.3795 59.833 24.4855 59.4356 24.6974C59.0515 24.8961 58.7468 25.2074 58.5216 25.6313C58.3097 26.0551 58.2037 26.5982 58.2037 27.2605V32.5456H55.1042V21.8562H58.0646V24.8166L57.5083 23.9225C57.8924 23.2073 58.4421 22.6576 59.1574 22.2734C59.8727 21.8893 60.6873 21.6972 61.6013 21.6972ZM78.9588 22.5913L81.8994 27.0618L78.9588 31.572H76.2765L78.9787 27.0618L76.2765 22.5913H78.9588ZM79.5549 25.9889V28.1546H72.4419V25.9889H79.5549Z" fill="black"/>
<rect x="113.803" width="179.091" height="51.0911" rx="17.0304" fill="#C3DCE3"/>
<path d="M140.998 32.5456V18.6374H144.217V29.9229H151.191V32.5456H140.998ZM157.222 32.7045C156.004 32.7045 154.931 32.4661 154.004 31.9893C153.09 31.5124 152.381 30.8634 151.878 30.0421C151.374 29.2076 151.123 28.2606 151.123 27.2009C151.123 26.128 151.368 25.1809 151.858 24.3597C152.361 23.5252 153.043 22.8761 153.904 22.4125C154.765 21.9357 155.739 21.6972 156.825 21.6972C157.871 21.6972 158.812 21.9224 159.646 22.3728C160.494 22.8099 161.163 23.4457 161.653 24.2802C162.143 25.1014 162.388 26.0882 162.388 27.2406C162.388 27.3598 162.382 27.4989 162.368 27.6579C162.355 27.8036 162.342 27.9427 162.329 28.0751H153.646V26.2671H160.699L159.507 26.8035C159.507 26.2472 159.395 25.7637 159.17 25.3531C158.944 24.9425 158.633 24.6246 158.236 24.3994C157.838 24.161 157.375 24.0418 156.845 24.0418C156.315 24.0418 155.845 24.161 155.434 24.3994C155.037 24.6246 154.726 24.9491 154.5 25.373C154.275 25.7836 154.163 26.2737 154.163 26.8433V27.3201C154.163 27.9029 154.288 28.4195 154.54 28.8699C154.805 29.307 155.169 29.6448 155.633 29.8832C156.11 30.1084 156.666 30.2209 157.302 30.2209C157.871 30.2209 158.368 30.1348 158.792 29.9627C159.229 29.7905 159.627 29.5322 159.984 29.1878L161.633 30.976C161.143 31.5323 160.527 31.9628 159.785 32.2674C159.044 32.5588 158.189 32.7045 157.222 32.7045ZM169.923 32.5456V30.4594L169.724 30.0024V26.2671C169.724 25.6048 169.519 25.0882 169.108 24.7173C168.711 24.3464 168.095 24.161 167.26 24.161C166.691 24.161 166.128 24.2537 165.571 24.4391C165.028 24.6113 164.565 24.8498 164.181 25.1544L163.068 22.9887C163.651 22.5781 164.353 22.2602 165.174 22.035C165.995 21.8098 166.83 21.6972 167.678 21.6972C169.307 21.6972 170.572 22.0814 171.473 22.8496C172.373 23.6179 172.824 24.8166 172.824 26.4459V32.5456H169.923ZM166.664 32.7045C165.83 32.7045 165.114 32.5655 164.518 32.2873C163.922 31.9959 163.465 31.6051 163.147 31.115C162.83 30.6249 162.671 30.0752 162.671 29.4659C162.671 28.8301 162.823 28.2738 163.128 27.797C163.446 27.3201 163.942 26.9492 164.618 26.6843C165.293 26.4061 166.174 26.2671 167.26 26.2671H170.102V28.0751H167.598C166.87 28.0751 166.366 28.1943 166.088 28.4328C165.823 28.6712 165.691 28.9692 165.691 29.3269C165.691 29.7242 165.843 30.0421 166.148 30.2806C166.466 30.5057 166.896 30.6183 167.439 30.6183C167.956 30.6183 168.419 30.4991 168.83 30.2607C169.241 30.009 169.539 29.6448 169.724 29.1679L170.201 30.5985C169.976 31.2872 169.565 31.8104 168.969 32.1681C168.373 32.5257 167.605 32.7045 166.664 32.7045ZM174.834 32.5456V21.8562H177.794V24.8762L177.377 24.002C177.695 23.247 178.205 22.6774 178.907 22.2933C179.609 21.8959 180.464 21.6972 181.47 21.6972V24.5583C181.338 24.5451 181.219 24.5385 181.113 24.5385C181.007 24.5252 180.894 24.5186 180.775 24.5186C179.927 24.5186 179.238 24.7637 178.708 25.2538C178.192 25.7306 177.934 26.479 177.934 27.4989V32.5456H174.834ZM189.035 21.6972C189.883 21.6972 190.638 21.8694 191.3 22.2138C191.976 22.545 192.505 23.0616 192.889 23.7636C193.274 24.4524 193.466 25.3398 193.466 26.426V32.5456H190.366V26.9029C190.366 26.0419 190.174 25.4061 189.79 24.9955C189.419 24.5848 188.889 24.3795 188.2 24.3795C187.71 24.3795 187.267 24.4855 186.869 24.6974C186.485 24.8961 186.18 25.2074 185.955 25.6313C185.743 26.0551 185.637 26.5982 185.637 27.2605V32.5456H182.538V21.8562H185.498V24.8166L184.942 23.9225C185.326 23.2073 185.876 22.6576 186.591 22.2734C187.306 21.8893 188.121 21.6972 189.035 21.6972ZM214.002 21.6972C214.85 21.6972 215.598 21.8694 216.247 22.2138C216.91 22.545 217.426 23.0616 217.797 23.7636C218.181 24.4524 218.373 25.3398 218.373 26.426V32.5456H215.274V26.9029C215.274 26.0419 215.095 25.4061 214.737 24.9955C214.38 24.5848 213.876 24.3795 213.227 24.3795C212.777 24.3795 212.373 24.4855 212.015 24.6974C211.658 24.8961 211.38 25.2008 211.181 25.6114C210.982 26.022 210.883 26.5452 210.883 27.181V32.5456H207.783V26.9029C207.783 26.0419 207.604 25.4061 207.247 24.9955C206.902 24.5848 206.406 24.3795 205.757 24.3795C205.306 24.3795 204.902 24.4855 204.545 24.6974C204.187 24.8961 203.909 25.2008 203.71 25.6114C203.512 26.022 203.412 26.5452 203.412 27.181V32.5456H200.313V21.8562H203.273V24.7769L202.717 23.9225C203.088 23.194 203.611 22.6443 204.286 22.2734C204.975 21.8893 205.757 21.6972 206.631 21.6972C207.611 21.6972 208.465 21.9489 209.194 22.4523C209.936 22.9424 210.426 23.6974 210.664 24.7173L209.572 24.4193C209.929 23.5848 210.499 22.9225 211.28 22.4324C212.075 21.9423 212.982 21.6972 214.002 21.6972ZM225.521 32.7045C224.382 32.7045 223.368 32.4661 222.481 31.9893C221.607 31.5124 220.911 30.8634 220.395 30.0421C219.891 29.2076 219.64 28.2606 219.64 27.2009C219.64 26.128 219.891 25.1809 220.395 24.3597C220.911 23.5252 221.607 22.8761 222.481 22.4125C223.368 21.9357 224.382 21.6972 225.521 21.6972C226.647 21.6972 227.653 21.9357 228.541 22.4125C229.428 22.8761 230.124 23.5185 230.627 24.3398C231.13 25.161 231.382 26.1147 231.382 27.2009C231.382 28.2606 231.13 29.2076 230.627 30.0421C230.124 30.8634 229.428 31.5124 228.541 31.9893C227.653 32.4661 226.647 32.7045 225.521 32.7045ZM225.521 30.1613C226.037 30.1613 226.501 30.0421 226.912 29.8037C227.322 29.5653 227.647 29.2275 227.885 28.7904C228.124 28.34 228.243 27.8102 228.243 27.2009C228.243 26.5783 228.124 26.0485 227.885 25.6114C227.647 25.1743 227.322 24.8365 226.912 24.5981C226.501 24.3597 226.037 24.2404 225.521 24.2404C225.004 24.2404 224.541 24.3597 224.13 24.5981C223.719 24.8365 223.388 25.1743 223.137 25.6114C222.898 26.0485 222.779 26.5783 222.779 27.2009C222.779 27.8102 222.898 28.34 223.137 28.7904C223.388 29.2275 223.719 29.5653 224.13 29.8037C224.541 30.0421 225.004 30.1613 225.521 30.1613ZM232.659 32.5456V21.8562H235.62V24.8762L235.202 24.002C235.52 23.247 236.03 22.6774 236.732 22.2933C237.434 21.8959 238.289 21.6972 239.295 21.6972V24.5583C239.163 24.5451 239.044 24.5385 238.938 24.5385C238.832 24.5252 238.719 24.5186 238.6 24.5186C237.752 24.5186 237.063 24.7637 236.534 25.2538C236.017 25.7306 235.759 26.479 235.759 27.4989V32.5456H232.659ZM245.571 32.7045C244.352 32.7045 243.279 32.4661 242.352 31.9893C241.438 31.5124 240.73 30.8634 240.226 30.0421C239.723 29.2076 239.471 28.2606 239.471 27.2009C239.471 26.128 239.716 25.1809 240.206 24.3597C240.71 23.5252 241.392 22.8761 242.253 22.4125C243.114 21.9357 244.087 21.6972 245.174 21.6972C246.22 21.6972 247.16 21.9224 247.995 22.3728C248.843 22.8099 249.512 23.4457 250.002 24.2802C250.492 25.1014 250.737 26.0882 250.737 27.2406C250.737 27.3598 250.73 27.4989 250.717 27.6579C250.704 27.8036 250.69 27.9427 250.677 28.0751H241.995V26.2671H249.048L247.856 26.8035C247.856 26.2472 247.743 25.7637 247.518 25.3531C247.293 24.9425 246.982 24.6246 246.584 24.3994C246.187 24.161 245.723 24.0418 245.193 24.0418C244.664 24.0418 244.193 24.161 243.783 24.3994C243.385 24.6246 243.074 24.9491 242.849 25.373C242.624 25.7836 242.511 26.2737 242.511 26.8433V27.3201C242.511 27.9029 242.637 28.4195 242.889 28.8699C243.154 29.307 243.518 29.6448 243.981 29.8832C244.458 30.1084 245.015 30.2209 245.65 30.2209C246.22 30.2209 246.717 30.1348 247.141 29.9627C247.578 29.7905 247.975 29.5322 248.333 29.1878L249.982 30.976C249.492 31.5323 248.876 31.9628 248.134 32.2674C247.392 32.5588 246.538 32.7045 245.571 32.7045ZM262.918 22.5913L265.858 27.0618L262.918 31.572H260.235L262.937 27.0618L260.235 22.5913H262.918ZM263.514 25.9889V28.1546H256.401V25.9889H263.514Z" fill="#2B788B"/>
</svg>
